<?xml version="1.0" encoding="UTF-8" standalone="no"?>
<svg
   width="603"
   height="246"
   fill="none"
   version="1.1"
   viewBox="0 0 603 246"
   xml:space="preserve"
   id="svg42"
   sodipodi:docname="hero.svg"
   inkscape:version="1.4 (e7c3feb1, 2024-10-09)"
   xmlns:inkscape="http://www.inkscape.org/namespaces/inkscape"
   xmlns:sodipodi="http://sodipodi.sourceforge.net/DTD/sodipodi-0.dtd"
   xmlns="http://www.w3.org/2000/svg"
   xmlns:svg="http://www.w3.org/2000/svg"><sodipodi:namedview
     id="namedview42"
     pagecolor="#ffffff"
     bordercolor="#000000"
     borderopacity="0.25"
     inkscape:showpageshadow="2"
     inkscape:pageopacity="0.0"
     inkscape:pagecheckerboard="0"
     inkscape:deskcolor="#d1d1d1"
     inkscape:zoom="1.8739635"
     inkscape:cx="300.43274"
     inkscape:cy="118.7323"
     inkscape:window-width="1920"
     inkscape:window-height="1080"
     inkscape:window-x="1512"
     inkscape:window-y="0"
     inkscape:window-maximized="0"
     inkscape:current-layer="g37" /><g
     clip-path="url(#r)"
     mask="url(#a)"
     id="g37"><rect
       x="483.8"
       y="74.578"
       width="89"
       height="30"
       rx="1"
       stroke="#ee847b"
       stroke-width="2"
       id="rect1" /><path
       d="m482.8 75.578c0-1.105 0.895-2 2-2h30v32h-30c-1.105 0-2-0.895-2-2z"
       fill="#ee847b"
       id="path1" /><rect
       x="490.77029"
       y="134.28027"
       width="98.504753"
       height="29.899443"
       rx="1.106795"
       stroke="#ee847b"
       stroke-width="2.10056"
       id="rect3" /><path
       d="m489.72 135.23c0-1.105 0.895-2 2-2h30v32h-30c-1.105 0-2-0.895-2-2z"
       fill="#ee847b"
       id="path5" /><rect
       x="464.47855"
       y="199.31856"
       width="112.24252"
       height="29.762875"
       rx="1.2611519"
       stroke="#ee847b"
       stroke-width="2.23713"
       id="rect6" /><path
       d="m463.36 200.2c0-1.105 0.895-2 2-2h30v32h-30c-1.105 0-2-0.895-2-2z"
       fill="#ee847b"
       id="path6" /><rect
       x="460.7821"
       y="22.901106"
       width="95.862907"
       height="30.335789"
       rx="0.68473506"
       stroke="#ee847b"
       stroke-width="1.66421"
       id="rect8" /><path
       d="m459.95 24.069c0-1.1046 0.895-2 2-2h30v32h-30c-1.105 0-2-0.8954-2-2z"
       fill="#ee847b"
       id="path8" /><g
       fill="#ffffff"
       id="g27"><mask
         id="mask16"><path
           d="m19.353 73.551-0.7595-0.3925c0.4047-0.7697 0.7293-1.5789 0.9685-2.4149l0.8192 0.2389c-0.2547 0.8889-0.5992 1.7495-1.0282 2.5685zm0.7936-7.8122c-0.1476-2.3891-0.9233-4.6969-2.2486-6.6902l0.7126-0.465c1.4084 2.1161 2.2327 4.5668 2.3893 7.104zm-5.6278-10.296c-0.6192-0.4624-1.279-0.868-1.9712-1.2117l0.3883-0.7595c0.7369 0.3625 1.4395 0.791 2.0992 1.28z"
           id="path16" /></mask><mask
         id="mask17"><path
           d="m18.013 66.823c-1.3467-1.3376-2.9749-2.358-4.7659-2.9867l0.2646-0.8107c1.9074 0.6695 3.6418 1.7554 5.0773 3.1787z"
           id="path17" /></mask><mask
         id="mask18"><path
           d="m21.529 71.917c-0.1579-0.4267-0.3371-0.8192-0.5334-1.216l0.7638-0.3797c0.2104 0.4169 0.3998 0.8441 0.5674 1.28z"
           id="path18" /></mask><mask
         id="mask19"><path
           d="m19.11 73.756-0.2731-0.8064c1.0221-0.3444 1.9786-0.8594 2.8288-1.5232l0.5248 0.6742c-0.926 0.7218-1.9676 1.2816-3.0805 1.6554z"
           id="path19" /></mask><mask
         id="mask20"><path
           d="m5.5461 63.452-0.19627-0.8277c0.94609-0.2317 1.9147-0.3591 2.8885-0.3797l0.02133 0.8533c-0.91474 0.0187-1.8247 0.1375-2.7136 0.3541z"
           id="path20" /></mask><mask
         id="mask21"><path
           d="m12.544 60.739-0.7168-0.465c0.6263-1.0172 1.3982-1.9372 2.2912-2.7307l0.5632 0.6443c-0.8339 0.741-1.5542 1.6007-2.1376 2.5514z"
           id="path21" /></mask><mask
         id="mask22"><path
           d="m18.888 55.678-0.2902-0.8022c0.6422-0.2407 1.3029-0.4291 1.9755-0.5632l0.1579 0.8534c-0.6276 0.119-1.2441 0.2903-1.8432 0.512z"
           id="path22" /></mask><mask
         id="mask23"><path
           d="m10.44 72.839c-0.69735-1.6184-1.0699-3.358-1.0966-5.12 0.01413-0.679 0.10284-1.3543 0.26454-2.0139 0.02986-0.1493 0.064-0.3029 0.09386-0.4608l0.85336 0.1664c-0.0299 0.1622-0.064 0.3158-0.0939 0.4694-0.1491 0.6021-0.2321 1.2187-0.2475 1.8389 0.0194 1.6554 0.3644 3.2907 1.0155 4.8128z"
           id="path23" /></mask><mask
         id="mask24"><path
           d="m15.667 74.332c-2.829 0-5.5421-1.1238-7.5425-3.1242s-3.1242-4.7135-3.1242-7.5424c0-0.2176 0-0.4267 0.02133-0.6443 0.13187-2.1831 0.93159-4.2728 2.2908-5.9862 1.3592-1.7133 3.2122-2.9675 5.3081-3.5925 1.3684-0.407 2.8047-0.5351 4.2236-0.3768s2.7915 0.5998 4.0366 1.2984c1.5369 0.8617 2.8363 2.0907 3.7823 3.5772 0.9459 1.4865 1.5089 3.1842 1.6387 4.9413 0.1297 1.7572-0.1778 3.5191-0.8952 5.1284s-1.8223 3.0158-3.2159 4.0939c-1.8712 1.4383-4.1637 2.2209-6.5237 2.2272zm0-20.48c-0.9504 0.0031-1.895 0.1469-2.8032 0.4267-1.9262 0.5748-3.6294 1.7272-4.8794 3.3014-1.2499 1.5743-1.9863 3.4944-2.1095 5.5007 0 0.2006-0.02134 0.3926-0.02134 0.5846 0 2.6026 1.0339 5.0987 2.8743 6.939 1.8403 1.8404 4.3364 2.8743 6.9391 2.8743 1.0774 0.0017 2.1475-0.1772 3.1658-0.5291 1.0239-0.3434 1.9819-0.8585 2.8331-1.5232 1.6185-1.2524 2.8049-2.9794 3.3933-4.9395 0.5884-1.96 0.5494-4.0549-0.1117-5.9917-0.6611-1.9367-1.9111-3.6183-3.5752-4.8095-1.6641-1.1911-3.6589-1.8323-5.7053-1.8337z"
           id="path24" /></mask><mask
         id="mask25"><path
           d="m16.704 58.729c-0.374 0-0.7396-0.1109-1.0506-0.3188-0.3109-0.2079-0.5531-0.5033-0.6961-0.849-0.1429-0.3456-0.1801-0.7259-0.1068-1.0926 0.0733-0.3668 0.2537-0.7036 0.5185-0.9677 0.2647-0.2642 0.6019-0.4439 0.9689-0.5163 0.3669-0.0725 0.7471-0.0344 1.0924 0.1093s0.6402 0.3866 0.8473 0.698c0.2072 0.3114 0.3174 0.6772 0.3165 1.0513 0 0.248-0.0489 0.4936-0.1439 0.7226-0.0951 0.2291-0.2344 0.4372-0.4099 0.6124-0.1756 0.1752-0.384 0.314-0.6133 0.4085s-0.475 0.1429-0.723 0.1423zm0-2.9226c-0.2051 0-0.4055 0.0608-0.576 0.1747s-0.3034 0.2758-0.3819 0.4653c-0.0785 0.1894-0.099 0.3979-0.059 0.599 0.04 0.2012 0.1388 0.3859 0.2838 0.5309s0.3297 0.2437 0.5308 0.2837 0.4096 0.0195 0.599-0.059c0.1895-0.0784 0.3514-0.2113 0.4653-0.3818 0.114-0.1705 0.1748-0.371 0.1748-0.576 0-0.275-0.1093-0.5387-0.3037-0.7332-0.1944-0.1944-0.4581-0.3036-0.7331-0.3036z"
           id="path25" /></mask><mask
         id="mask26"><path
           d="m10.884 64.681c-0.3738 0-0.7392-0.1108-1.0501-0.3185-0.31083-0.2077-0.55309-0.5029-0.69615-0.8483s-0.18049-0.7254-0.10756-1.0921c0.07293-0.3666 0.25295-0.7034 0.51729-0.9677 0.26434-0.2644 0.6011-0.4444 0.9678-0.5173 0.3666-0.073 0.7467-0.0355 1.092 0.1075 0.3454 0.1431 0.6406 0.3854 0.8483 0.6962s0.3186 0.6763 0.3186 1.0501c-0.0012 0.5009-0.2007 0.981-0.5549 1.3353-0.3542 0.3542-0.8343 0.5537-1.3353 0.5548zm0-2.9269c-0.205 0-0.4055 0.0608-0.576 0.1747s-0.3034 0.2759-0.38185 0.4653c-0.07848 0.1895-0.09901 0.3979-0.059 0.5991 0.04 0.2011 0.13875 0.3858 0.28375 0.5308s0.3297 0.2438 0.5309 0.2838c0.2011 0.04 0.4095 0.0194 0.599-0.059 0.1894-0.0785 0.3514-0.2114 0.4653-0.3819s0.1747-0.3709 0.1747-0.576c0.0012-0.1369-0.0248-0.2726-0.0764-0.3994s-0.1278-0.2421-0.2242-0.3393c-0.0964-0.0971-0.2111-0.1743-0.3374-0.2269-0.1264-0.0526-0.2619-0.0797-0.3988-0.0797z"
           id="path26" /></mask><mask
         id="mask27"><path
           d="m20.266 70.151c-0.3742 8e-4 -0.7402-0.1094-1.0517-0.3168-0.3115-0.2073-0.5544-0.5025-0.698-0.848-0.1436-0.3456-0.1814-0.726-0.1086-1.093 0.0728-0.3671 0.2529-0.7043 0.5175-0.9689s0.6018-0.4447 0.9688-0.5175c0.3671-0.0727 0.7475-0.035 1.093 0.1086 0.3456 0.1436 0.6407 0.3865 0.8481 0.698s0.3176 0.6775 0.3168 1.0517c0 0.5002-0.1987 0.9799-0.5524 1.3335-0.3537 0.3537-0.8333 0.5524-1.3335 0.5524zm0-2.9227c-0.2052-8e-4 -0.4061 0.0593-0.5772 0.1727-0.171 0.1134-0.3046 0.275-0.3837 0.4644s-0.1003 0.398-0.0608 0.5994c0.0396 0.2014 0.138 0.3865 0.2828 0.5319 0.1448 0.1455 0.3296 0.2446 0.5308 0.285 0.2012 0.0403 0.4099 0.0201 0.5996-0.0583 0.1897-0.0783 0.3519-0.2112 0.466-0.3818s0.175-0.3712 0.175-0.5765c0-0.2742-0.1086-0.5373-0.3021-0.7316s-0.4562-0.304-0.7304-0.3052z"
           id="path27" /></mask></g><path
       d="m460.15 36.791c-27.5 0-89.363 85.055-109.36 85.055"
       stroke="#ee847b"
       stroke-width="2"
       id="path29" /><path
       d="m482.97 90.212c-27.5 0-110.21 32.184-130.21 32.184"
       stroke="#ee847b"
       stroke-width="2"
       id="path30" /><path
       d="m490.14 148.95c-27.5 0-118.34-26.787-138.34-26.787"
       stroke="#ee847b"
       stroke-width="1.9994"
       id="path36" /><path
       d="m463.77 212.55c-27.5 0-90.888-89.826-110.89-89.826"
       stroke="#ee847b"
       stroke-width="1.9994"
       id="path37" /><g
       id="g43"
       transform="matrix(1.2,0,0,1.2,484.32933,75.605659)"
       inkscape:label="Google Vertex"
       style="fill:#ffffff;fill-opacity:1;stroke:none;stroke-opacity:1"><path
         d="m 20,13.89 a 0.77,0.77 0 0 0 -1,-0.16 l -7,5.14 v 0.22 a 0.72,0.72 0 1 1 0,1.43 v 0 a 0.74,0.74 0 0 0 0.45,-0.15 L 19.86,14.9 A 0.76,0.76 0 0 0 20,13.89 Z"
         style="fill:#ffffff;fill-opacity:1;stroke:none;stroke-opacity:1"
         id="path1-6" /><path
         d="m 12,20.52 a 0.72,0.72 0 0 1 0,-1.43 v 0 -0.22 L 5,13.73 a 0.76,0.76 0 0 0 -1,0.16 0.74,0.74 0 0 0 0.16,1 l 7.41,5.47 a 0.73,0.73 0 0 0 0.44,0.15 v 0 z"
         style="fill:#ffffff;fill-opacity:1;stroke:none;stroke-opacity:1"
         id="path2-3" /><path
         d="M 12,18.34 A 1.47,1.47 0 1 0 13.47,19.81 1.47,1.47 0 0 0 12,18.34 Z m 0,2.18 A 0.72,0.72 0 1 1 12.72,19.81 0.71,0.71 0 0 1 12,20.52 Z"
         style="fill:#ffffff;fill-opacity:1;stroke:none;stroke-opacity:1"
         id="path3-0" /><path
         d="M 6,6.11 A 0.76,0.76 0 0 1 5.25,5.36 V 3.48 a 0.76,0.76 0 1 1 1.51,0 V 5.36 A 0.76,0.76 0 0 1 6,6.11 Z"
         style="fill:#ffffff;fill-opacity:1;stroke:none;stroke-opacity:1"
         id="path4-8" /><circle
         cx="5.98"
         cy="12"
         r="0.75999999"
         style="fill:#ffffff;fill-opacity:1;stroke:none;stroke-opacity:1"
         id="circle4" /><circle
         cx="5.98"
         cy="9.79"
         r="0.75999999"
         style="fill:#ffffff;fill-opacity:1;stroke:none;stroke-opacity:1"
         id="circle5" /><circle
         cx="5.98"
         cy="7.5700002"
         r="0.75999999"
         style="fill:#ffffff;fill-opacity:1;stroke:none;stroke-opacity:1"
         id="circle6" /><path
         d="M 18,8.31 A 0.76,0.76 0 0 1 17.25,7.55 V 5.67 a 0.75,0.75 0 1 1 1.5,0 V 7.55 A 0.75,0.75 0 0 1 18,8.31 Z"
         style="fill:#ffffff;fill-opacity:1;stroke:none;stroke-opacity:1"
         id="path6-4" /><circle
         cx="18.02"
         cy="12.01"
         r="0.75999999"
         style="fill:#ffffff;fill-opacity:1;stroke:none;stroke-opacity:1"
         id="circle7" /><circle
         cx="18.02"
         cy="9.7600002"
         r="0.75999999"
         style="fill:#ffffff;fill-opacity:1;stroke:none;stroke-opacity:1"
         id="circle8" /><circle
         cx="18.02"
         cy="3.48"
         r="0.75999999"
         style="fill:#ffffff;fill-opacity:1;stroke:none;stroke-opacity:1"
         id="circle9" /><path
         d="m 12,15 a 0.76,0.76 0 0 1 -0.75,-0.75 v -1.91 a 0.76,0.76 0 0 1 1.51,0 v 1.89 A 0.76,0.76 0 0 1 12,15 Z"
         style="fill:#ffffff;fill-opacity:1;stroke:none;stroke-opacity:1"
         id="path9-0" /><circle
         cx="12"
         cy="16.450001"
         r="0.75999999"
         style="fill:#ffffff;fill-opacity:1;stroke:none;stroke-opacity:1"
         id="circle10" /><circle
         cx="12"
         cy="10.14"
         r="0.75999999"
         style="fill:#ffffff;fill-opacity:1;stroke:none;stroke-opacity:1"
         id="circle11" /><circle
         cx="12"
         cy="7.9200001"
         r="0.75999999"
         style="fill:#ffffff;fill-opacity:1;stroke:none;stroke-opacity:1"
         id="circle12" /><path
         d="M 15,10.54 A 0.76,0.76 0 0 1 14.25,9.79 V 7.91 a 0.76,0.76 0 1 1 1.51,0 V 9.79 A 0.76,0.76 0 0 1 15,10.54 Z"
         style="fill:#ffffff;fill-opacity:1;stroke:none;stroke-opacity:1"
         id="path12-4" /><circle
         cx="15.01"
         cy="5.6900001"
         r="0.75999999"
         style="fill:#ffffff;fill-opacity:1;stroke:none;stroke-opacity:1"
         id="circle13" /><circle
         cx="15.01"
         cy="14.19"
         r="0.75999999"
         style="fill:#ffffff;fill-opacity:1;stroke:none;stroke-opacity:1"
         id="circle14" /><circle
         cx="15.01"
         cy="11.97"
         r="0.75999999"
         style="fill:#ffffff;fill-opacity:1;stroke:none;stroke-opacity:1"
         id="circle15" /><circle
         cx="8.9899998"
         cy="14.19"
         r="0.75999999"
         style="fill:#ffffff;fill-opacity:1;stroke:none;stroke-opacity:1"
         id="circle16" /><circle
         cx="8.9899998"
         cy="7.9200001"
         r="0.75999999"
         style="fill:#ffffff;fill-opacity:1;stroke:none;stroke-opacity:1"
         id="circle17" /><circle
         cx="8.9899998"
         cy="5.6900001"
         r="0.75999999"
         style="fill:#ffffff;fill-opacity:1;stroke:none;stroke-opacity:1"
         id="circle18" /><path
         d="M 9,12.73 A 0.76,0.76 0 0 1 8.24,12 v -1.9 a 0.75,0.75 0 1 1 1.5,0 V 12 A 0.75,0.75 0 0 1 9,12.73 Z"
         style="fill:#ffffff;fill-opacity:1;stroke:none;stroke-opacity:1"
         id="path18-6" /></g><g
       style="fill:none;stroke:#ffffff;stroke-width:2;stroke-linecap:round;stroke-linejoin:round;stroke-opacity:1"
       id="g42"
       transform="translate(464.09436,25.63666)"
       inkscape:label="OpenAI"><path
         d="M 11.217,19.384 A 3.501,3.501 0 0 0 18,18.167 V 13 L 12,9.65"
         id="path2"
         style="stroke:#ffffff;stroke-opacity:1" /><path
         d="M 5.214,15.014 A 3.501,3.501 0 0 0 9.66,20.28 L 14,17.746 V 10.8"
         id="path3-2"
         style="stroke:#ffffff;stroke-opacity:1" /><path
         d="M 6,7.63 C 4.609,7.394 3.213,8.025 2.466,9.319 a 3.474,3.474 0 0 0 1.271,4.745 L 8,16.578 14,13.23"
         id="path4-1"
         style="stroke:#ffffff;stroke-opacity:1" /><path
         d="M 12.783,4.616 A 3.501,3.501 0 0 0 6,5.833 V 10.9 l 6,3.45"
         id="path5-1"
         style="stroke:#ffffff;stroke-opacity:1" /><path
         d="M 18.786,8.986 A 3.501,3.501 0 0 0 14.34,3.72 L 10,6.254 V 13.2"
         id="path6-0"
         style="stroke:#ffffff;stroke-opacity:1" /><path
         d="m 18,16.302 c 1.391,0.236 2.787,-0.395 3.534,-1.689 A 3.474,3.474 0 0 0 20.263,9.868 L 15.955,7.354 10,10.774"
         id="path7"
         style="stroke:#ffffff;stroke-opacity:1" /></g><text
       xml:space="preserve"
       style="text-align:start;writing-mode:lr-tb;direction:ltr;text-anchor:start;fill:#ee847b;fill-opacity:1;stroke:none;stroke-width:1;stroke-miterlimit:2;stroke-dasharray:none;stroke-opacity:1;-inkscape-font-specification:'Inter, @opsz=32,wght=700';font-family:Inter;font-weight:normal;font-style:normal;font-stretch:normal;font-variant:normal;font-size:12px;font-variant-ligatures:normal;font-variant-caps:normal;font-variant-numeric:normal;font-variant-east-asian:normal;font-variation-settings:'opsz' 32, 'wght' 700"
       x="502.936"
       y="41.856834"
       id="text43"><tspan
         sodipodi:role="line"
         id="tspan43"
         x="502.936"
         y="41.856834">OpenAI</tspan></text><text
       xml:space="preserve"
       style="font-style:normal;font-variant:normal;font-weight:normal;font-stretch:normal;font-size:12px;font-family:Inter;-inkscape-font-specification:'Inter, @opsz=32,wght=700';font-variant-ligatures:normal;font-variant-caps:normal;font-variant-numeric:normal;font-variant-east-asian:normal;font-variation-settings:'opsz' 32, 'wght' 700;text-align:start;writing-mode:lr-tb;direction:ltr;text-anchor:start;fill:#ee847b;fill-opacity:1;stroke:none;stroke-width:1;stroke-miterlimit:2;stroke-dasharray:none;stroke-opacity:1"
       x="525.09509"
       y="94.487144"
       id="text43-3"><tspan
         sodipodi:role="line"
         id="tspan1"
         x="525.09509"
         y="94.487144">Vertex</tspan></text><path
       class="st0"
       d="m 510.95063,141.58877 h -3.49943 l 6.37841,16.13219 h 3.49945 z m -10.12604,0 -6.37843,16.13219 h 3.5739 l 1.3154,-3.37535 h 6.67624 l 1.29057,3.37535 h 3.5739 l -6.37841,-16.13219 z m -0.34747,9.75377 2.18405,-5.65867 2.18405,5.65867 z"
       id="path1-7"
       style="fill:#ffffff;fill-opacity:1;stroke-width:0.248187">
 </path><text
       xml:space="preserve"
       style="font-style:normal;font-variant:normal;font-weight:normal;font-stretch:normal;font-size:12px;font-family:Inter;-inkscape-font-specification:'Inter, @opsz=32,wght=700';font-variant-ligatures:normal;font-variant-caps:normal;font-variant-numeric:normal;font-variant-east-asian:normal;font-variation-settings:'opsz' 32, 'wght' 700;text-align:start;writing-mode:lr-tb;direction:ltr;text-anchor:start;fill:#ee847b;fill-opacity:1;stroke:none;stroke-width:1;stroke-miterlimit:2;stroke-dasharray:none;stroke-opacity:1"
       x="527.95166"
       y="153.86497"
       id="text43-3-1"><tspan
         sodipodi:role="line"
         id="tspan2"
         x="527.95166"
         y="153.86497">Anthropic</tspan></text><g
       style="fill:#ffffff;fill-opacity:1;stroke:#ffffff;stroke-opacity:1"
       id="g2"
       transform="matrix(0.04375,0,0,0.04375,468.37082,203.05788)"
       inkscape:label="OpenRouter"><g
         clip-path="url(#clip0_205_3)"
         id="g4"
         style="fill:#ffffff;fill-opacity:1;stroke:#ffffff;stroke-opacity:1"><path
           d="m 3,248.945 c 15,0 73,-12.945 103,-29.945 30,-17 30,-17 92,-61 78.497,-55.707 134,-37.055 225,-37.055"
           stroke-width="90"
           id="path1-0"
           style="fill:#ffffff;fill-opacity:1;stroke:#ffffff;stroke-opacity:1" /><path
           d="M 511,121.5 357.25,210.268 V 32.7324 Z"
           id="path2-0"
           style="fill:#ffffff;fill-opacity:1;stroke:#ffffff;stroke-opacity:1" /><path
           d="m 0,249 c 15,0 73,12.945 103,29.945 30,17 30,17 92,61 C 273.497,395.652 329,377 420,377"
           stroke-width="90"
           id="path3"
           style="fill:#ffffff;fill-opacity:1;stroke:#ffffff;stroke-opacity:1" /><path
           d="M 508,376.445 354.25,287.678 v 177.535 z"
           id="path4"
           style="fill:#ffffff;fill-opacity:1;stroke:#ffffff;stroke-opacity:1" /></g></g><text
       xml:space="preserve"
       style="font-style:normal;font-variant:normal;font-weight:normal;font-stretch:normal;font-size:12px;font-family:Inter;-inkscape-font-specification:'Inter, @opsz=32,wght=700';font-variant-ligatures:normal;font-variant-caps:normal;font-variant-numeric:normal;font-variant-east-asian:normal;font-variation-settings:'opsz' 32, 'wght' 700;text-align:start;writing-mode:lr-tb;direction:ltr;text-anchor:start;fill:#ee847b;fill-opacity:1;stroke:none;stroke-width:1;stroke-miterlimit:2;stroke-dasharray:none;stroke-opacity:1"
       x="502.41806"
       y="219.07124"
       id="text43-3-1-0"><tspan
         sodipodi:role="line"
         id="tspan3">OpenRouter</tspan></text></g><defs
     id="defs42"><clipPath
       id="r"><rect
         width="629"
         height="246"
         fill="#fff"
         id="rect37" /></clipPath><clipPath
       id="o"><rect
         transform="translate(371,157)"
         width="22"
         height="22"
         fill="#fff"
         id="rect38" /></clipPath><clipPath
       id="c"><rect
         transform="translate(338,5)"
         width="22"
         height="22"
         fill="#fff"
         id="rect39" /></clipPath><mask
       id="a"
       maskUnits="userSpaceOnUse"><rect
         x=".32404"
         y=".22736"
         width="628.86"
         height="245.04"
         rx="2"
         fill="url(#b)"
         id="rect40" /></mask><linearGradient
       id="b"
       x1=".30854"
       x2="629.2"
       y1="122.75"
       y2="122.75"
       gradientUnits="userSpaceOnUse"><stop
         offset="0"
         id="stop40" /><stop
         offset=".59967"
         id="stop41" /><stop
         stop-color="#fff"
         offset=".82107"
         id="stop42" /></linearGradient></defs><style
     type="text/css"
     id="style1">
  .st0{fill:#181818;}
 </style></svg>
