<?xml version="1.0" encoding="UTF-8"?>
<svg width="603" height="246" fill="none" version="1.1" viewBox="0 0 603 246" xml:space="preserve" xmlns="http://www.w3.org/2000/svg" xmlns:xlink="http://www.w3.org/1999/xlink"><g clip-path="url(#r)" mask="url(#a)"><rect x="483.8" y="74.578" width="89" height="30" rx="1" stroke="#ee847b" stroke-width="2"/><path d="m482.8 75.578c0-1.105 0.895-2 2-2h30v32h-30c-1.105 0-2-0.895-2-2z" fill="#ee847b"/><rect x="522.8" y="85.578" width="35" height="8" rx="2" fill="#ee847b"/><rect x="490.72" y="134.23" width="89" height="30" rx="1" stroke="#ee847b" stroke-width="2"/><g transform="translate(150.21 74.066)" clip-path="url(#c)"><path d="m348.6 5.306c-0.183 0.00952-0.363 0.05637-0.529 0.13781l-7.217 3.5509c-0.187 0.09186-0.351 0.22552-0.48 0.39105-0.129 0.16554-0.22 0.35869-0.267 0.56511l-1.78 7.9763c-0.041 0.1837-0.046 0.3741-0.014 0.5597 0.033 0.1856 0.101 0.3627 0.201 0.5209 0.025 0.0387 0.051 0.0761 0.079 0.1122l4.995 6.3956c0.129 0.1655 0.294 0.2991 0.48 0.3909 0.187 0.0918 0.392 0.1395 0.599 0.1394l8.011-0.0019c0.207 2e-4 0.412-0.0473 0.598-0.139 0.187-0.0916 0.351-0.225 0.481-0.3904l4.993-6.3965c0.13-0.1656 0.221-0.3588 0.267-0.5653s0.046-0.421 0-0.6275l-1.783-7.9763c-0.046-0.20642-0.137-0.39958-0.267-0.56511-0.129-0.16553-0.293-0.29919-0.48-0.39105l-7.218-3.549c-0.208-0.10244-0.438-0.14983-0.669-0.13781z" fill="#fff"/><path d="m348.68 8.0204c-0.239 2e-5 -0.432 0.22129-0.432 0.49423v0.01236c0 0.03708-2e-3 0.08176 0 0.11405 5e-3 0.15743 0.039 0.27792 0.059 0.42296 0.036 0.31043 0.066 0.56776 0.048 0.80693-0.019 0.09019-0.083 0.17268-0.141 0.22998l-0.01 0.1882c-0.259 0.0221-0.52 0.0626-0.781 0.1236-1.121 0.2622-2.087 0.8572-2.822 1.6604-0.048-0.0335-0.131-0.0951-0.156-0.114-0.077 0.0107-0.155 0.0352-0.257-0.0257-0.193-0.134-0.369-0.3189-0.582-0.5418-0.098-0.1065-0.169-0.208-0.284-0.3107-0.027-0.0234-0.067-0.0549-0.096-0.0789-0.091-0.0745-0.198-0.1133-0.301-0.1169-0.133-0.0047-0.261 0.0487-0.345 0.1568-0.148 0.1921-0.101 0.4856 0.106 0.6558 3e-3 0.0017 5e-3 0.0031 7e-3 0.0047 0.028 0.0238 0.063 0.0543 0.089 0.0742 0.124 0.0936 0.236 0.1415 0.359 0.2157 0.258 0.1643 0.472 0.3006 0.642 0.4648 0.066 0.0728 0.078 0.2011 0.087 0.2566l0.138 0.1274c-0.741 1.1486-1.084 2.5673-0.881 4.0128l-0.181 0.0542c-0.048 0.0634-0.115 0.1632-0.186 0.1929-0.222 0.0721-0.472 0.0986-0.774 0.1312-0.142 0.0121-0.264 0.0049-0.414 0.0342-0.034 0.0065-0.08 0.0188-0.116 0.0276-1e-3 2e-4 -2e-3 6e-4 -4e-3 9e-4 -2e-3 5e-4 -4e-3 0.0015-6e-3 0.0019-0.255 0.0634-0.418 0.3044-0.366 0.5418 0.053 0.2375 0.302 0.3819 0.558 0.325 2e-3 -4e-4 4e-3 -5e-4 6e-3 -9e-4 3e-3 -7e-4 6e-3 -0.0021 9e-3 -0.0029 0.035-8e-3 0.08-0.017 0.111-0.0256 0.148-0.0408 0.255-0.1006 0.388-0.153 0.286-0.1056 0.523-0.1938 0.753-0.2282 0.097-0.0077 0.198 0.0612 0.249 0.0903l0.188-0.0332c0.433 1.3833 1.341 2.5014 2.491 3.203l-0.078 0.1939c0.028 0.0753 0.059 0.1772 0.038 0.2515-0.084 0.2239-0.228 0.4602-0.391 0.7237-0.079 0.1217-0.16 0.2161-0.232 0.3554-0.017 0.0334-0.039 0.0846-0.055 0.1198-0.111 0.2446-0.03 0.5263 0.184 0.632 0.214 0.1064 0.481-0.0058 0.596-0.2509 0-3e-4 1e-3 -6e-4 1e-3 -9e-4v-1e-3c0.016-0.0347 0.039-0.0804 0.053-0.1131 0.062-0.1444 0.082-0.2681 0.125-0.4077 0.114-0.2957 0.177-0.6058 0.334-0.7991 0.043-0.053 0.114-0.0733 0.186-0.0934l0.098-0.1825c1.003 0.3962 2.125 0.5025 3.246 0.2405 0.255-0.0598 0.502-0.1372 0.741-0.23 0.027 0.0502 0.078 0.1467 0.092 0.1711 0.074 0.0247 0.155 0.0375 0.221 0.1378 0.117 0.2071 0.198 0.4521 0.296 0.748 0.043 0.1396 0.064 0.2633 0.125 0.4077 0.014 0.0329 0.038 0.0792 0.054 0.1141 0.115 0.2459 0.382 0.3585 0.597 0.2518 0.213-0.1057 0.295-0.3874 0.184-0.632-0.017-0.0352-0.039-0.0864-0.056-0.1198-0.072-0.1393-0.153-0.2328-0.232-0.3545-0.164-0.2634-0.299-0.4823-0.383-0.7062-0.035-0.1154 6e-3 -0.1873 0.033-0.2623-0.016-0.0193-0.051-0.1283-0.072-0.1796 1.195-0.7266 2.076-1.8864 2.49-3.2259 0.056 0.0091 0.153 0.0268 0.185 0.0333 0.065-0.0441 0.125-0.1017 0.242-0.0922 0.23 0.0343 0.467 0.1226 0.753 0.2281 0.133 0.0524 0.24 0.1132 0.388 0.154 0.031 0.0086 0.076 0.0166 0.111 0.0247 3e-3 7e-4 6e-3 0.0022 9e-3 0.0028 2e-3 5e-4 4e-3 6e-4 6e-3 1e-3 0.256 0.0568 0.505-0.0876 0.558-0.3251 0.052-0.2374-0.111-0.4784-0.366-0.5417-0.037-0.0087-0.09-0.0234-0.126-0.0304-0.15-0.0294-0.272-0.0221-0.414-0.0343-0.302-0.0325-0.552-0.059-0.774-0.1311-0.091-0.0362-0.155-0.1473-0.187-0.193l-0.174-0.0522c0.09-0.6739 0.066-1.3751-0.091-2.0768-0.158-0.7082-0.437-1.3559-0.809-1.9266 0.045-0.0418 0.129-0.1189 0.153-0.1416 7e-3 -0.0798 1e-3 -0.1635 0.081-0.2518 0.17-0.1643 0.384-0.3005 0.643-0.4648 0.122-0.0743 0.236-0.1222 0.359-0.2158 0.028-0.0211 0.066-0.0546 0.095-0.0789 0.207-0.1702 0.255-0.4637 0.106-0.6558-0.149-0.192-0.437-0.2101-0.644-0.0399-0.03 0.0241-0.07 0.0554-0.096 0.0789-0.116 0.1027-0.188 0.2042-0.285 0.3108-0.214 0.2228-0.39 0.4087-0.583 0.5427-0.084 0.0502-0.206 0.0328-0.262 0.0295l-0.164 0.1207c-0.937-1.0116-2.213-1.6584-3.586-1.784-4e-3 -0.0593-9e-3 -0.1664-0.01-0.1987-0.057-0.0554-0.124-0.10268-0.142-0.22238-0.018-0.23917 0.013-0.4965 0.049-0.80693 0.02-0.14504 0.054-0.26553 0.059-0.42296 2e-3 -0.03578 0-0.08771 0-0.12641-1e-3 -0.27294-0.194-0.49426-0.432-0.49423zm-0.541 3.4501-0.129 2.3334-9e-3 0.0048c-8e-3 0.2087-0.175 0.3754-0.38 0.3754-0.084 0-0.161-0.0278-0.224-0.0751l-4e-3 0.0019-1.858-1.3563c0.571-0.5782 1.301-1.0055 2.143-1.2023 0.154-0.036 0.308-0.0626 0.461-0.0818zm1.082 0c0.983 0.1245 1.892 0.5827 2.588 1.2851l-1.846 1.3477-6e-3 -0.0029c-0.164 0.1233-0.395 0.0927-0.522-0.0722-0.053-0.0675-0.08-0.147-0.084-0.2271l-1e-3 -1e-3zm-4.36 2.1557 1.697 1.5625-2e-3 0.0095c0.153 0.1371 0.175 0.375 0.048 0.5399-0.053 0.0675-0.123 0.1128-0.198 0.134l-2e-3 0.0076-2.174 0.6463c-0.111-1.0422 0.128-2.0552 0.631-2.8998zm7.625 9e-4c0.252 0.4207 0.443 0.8906 0.557 1.4 0.112 0.5033 0.14 1.0058 0.094 1.4913l-2.186-0.6482-2e-3 -0.0095c-0.196-0.0551-0.316-0.2601-0.27-0.4657 0.018-0.0843 0.062-0.1555 0.121-0.2082l-1e-3 -0.0047zm-4.154 1.6823h0.695l0.432 0.556-0.156 0.6939-0.623 0.3089-0.626-0.3099-0.155-0.6938zm2.228 1.9028c0.029-0.0015 0.059 0.0012 0.087 0.0067l4e-3 -0.0048 2.249 0.3916c-0.329 0.9524-0.959 1.7775-1.8 2.3296l-0.874-2.1718 3e-3 -0.0038c-0.08-0.1919 0-0.417 0.185-0.5085 0.047-0.0234 0.096-0.0364 0.146-0.039zm-3.778 0.0095c0.172 0.0025 0.325 0.1252 0.365 0.3051 0.019 0.0843 0.01 0.1677-0.021 0.2415l7e-3 0.0085-0.864 2.1499c-0.808-0.5337-1.451-1.3329-1.796-2.3134l2.23-0.3897 4e-3 0.0048c0.025-0.0047 0.05-7e-3 0.075-0.0067zm1.884 0.9419c0.059-0.0022 0.12 0.0104 0.178 0.039 0.075 0.0375 0.134 0.0965 0.171 0.1673h8e-3l1.099 2.0454c-0.142 0.0492-0.289 0.0913-0.439 0.1264-0.841 0.1965-1.679 0.137-2.438-0.1293l1.097-2.0416h2e-3c0.065-0.1266 0.19-0.2022 0.322-0.2072z" fill="#ee847b" stroke="#ee847b" stroke-width=".25"/></g><path d="m489.72 135.23c0-1.105 0.895-2 2-2h30v32h-30c-1.105 0-2-0.895-2-2z" fill="#ee847b"/><rect x="529.72" y="145.23" width="35" height="8" rx="2" fill="#ee847b"/><rect x="464.36" y="199.2" width="89" height="30" rx="1" stroke="#ee847b" stroke-width="2"/><path d="m463.36 200.2c0-1.105 0.895-2 2-2h30v32h-30c-1.105 0-2-0.895-2-2z" fill="#ee847b"/><rect x="503.36" y="210.2" width="35" height="8" rx="2" fill="#ee847b"/><rect x="460.95" y="23.069" width="140" height="30" rx="1" stroke="#ee847b" stroke-width="2"/><path d="m459.95 24.069c0-1.1046 0.895-2 2-2h30v32h-30c-1.105 0-2-0.8954-2-2z" fill="#ee847b"/><g fill="#fff"><path d="m510.06 144.94c0-1.238-2.428-1.809-4.694-1.809-2.265 0-4.693 0.571-4.693 1.809-2e-3 0.062 5e-3 0.123 0.021 0.183v7.702c-0.021 1.28 2.411 1.826 4.694 1.826 2.282 0 4.693-0.564 4.693-1.801v-7.91zm-4.685-0.952c2.487 0 3.84 0.679 3.84 0.956s-1.344 0.956-3.84 0.956-3.84-0.674-3.84-0.956 1.352-0.956 3.84-0.956zm3.84 8.866c0 0.273-1.348 0.948-3.84 0.948s-3.84-0.675-3.84-0.948v-1.348c0.9 0.491 2.41 0.725 3.84 0.725 1.429 0 2.927-0.23 3.84-0.712zm0-2.427c0 0.273-1.344 0.955-3.84 0.955s-3.84-0.682-3.84-0.955h0.013v-1.63c0.9 0.486 2.41 0.721 3.84 0.721 1.429 0 2.927-0.231 3.84-0.713zm0-2.718c0 0.277-1.344 0.96-3.84 0.96s-3.84-0.683-3.84-0.96h0.013v-1.664c0.908 0.482 2.402 0.704 3.84 0.704 1.437 0 2.948-0.231 3.84-0.721z"/><path d="m496.18 158.72h2.812v0.853h-3.84c-0.113 0-0.222-0.045-0.302-0.125s-0.125-0.189-0.125-0.302v-3.84h0.853v2.803l3.2-3.195 0.598 0.601z"/><path d="m516.05 155.3v3.84c0 0.113-0.045 0.222-0.125 0.302s-0.188 0.125-0.301 0.125h-3.84v-0.853h2.811l-3.153-3.162 0.602-0.597 3.153 3.148v-2.803z"/><path d="m516.05 138.66v3.84h-0.853v-2.816l-3.153 3.153-0.602-0.601 3.149-3.149h-2.807v-0.853h3.84c0.113 0 0.221 0.044 0.301 0.125 0.08 0.08 0.125 0.188 0.125 0.301z"/><path d="m499.37 142.28-0.598 0.597-3.2-3.196v2.808h-0.853v-3.84c0-0.113 0.045-0.222 0.125-0.302s0.189-0.125 0.302-0.125h3.84v0.853h-2.812z"/><path d="m498.84 152.72c-2.607-0.939-4.101-2.372-4.101-3.93 0-1.557 1.494-2.986 4.101-3.929l0.29 0.802c-2.215 0.798-3.537 1.967-3.537 3.127 0 1.161 1.322 2.33 3.537 3.128z"/><path d="m511.69 152.81-0.273-0.811c2.368-0.798 3.78-2.001 3.78-3.213 0-1.211-1.412-2.415-3.78-3.217l0.273-0.806c2.769 0.93 4.36 2.406 4.36 4.023s-1.591 3.085-4.36 4.024z"/></g><g fill="#ffffff"><mask><path d="m19.353 73.551-0.7595-0.3925c0.4047-0.7697 0.7293-1.5789 0.9685-2.4149l0.8192 0.2389c-0.2547 0.8889-0.5992 1.7495-1.0282 2.5685zm0.7936-7.8122c-0.1476-2.3891-0.9233-4.6969-2.2486-6.6902l0.7126-0.465c1.4084 2.1161 2.2327 4.5668 2.3893 7.104zm-5.6278-10.296c-0.6192-0.4624-1.279-0.868-1.9712-1.2117l0.3883-0.7595c0.7369 0.3625 1.4395 0.791 2.0992 1.28z"/></mask><mask><path d="m18.013 66.823c-1.3467-1.3376-2.9749-2.358-4.7659-2.9867l0.2646-0.8107c1.9074 0.6695 3.6418 1.7554 5.0773 3.1787z"/></mask><mask><path d="m21.529 71.917c-0.1579-0.4267-0.3371-0.8192-0.5334-1.216l0.7638-0.3797c0.2104 0.4169 0.3998 0.8441 0.5674 1.28z"/></mask><mask><path d="m19.11 73.756-0.2731-0.8064c1.0221-0.3444 1.9786-0.8594 2.8288-1.5232l0.5248 0.6742c-0.926 0.7218-1.9676 1.2816-3.0805 1.6554z"/></mask><mask><path d="m5.5461 63.452-0.19627-0.8277c0.94609-0.2317 1.9147-0.3591 2.8885-0.3797l0.02133 0.8533c-0.91474 0.0187-1.8247 0.1375-2.7136 0.3541z"/></mask><mask><path d="m12.544 60.739-0.7168-0.465c0.6263-1.0172 1.3982-1.9372 2.2912-2.7307l0.5632 0.6443c-0.8339 0.741-1.5542 1.6007-2.1376 2.5514z"/></mask><mask><path d="m18.888 55.678-0.2902-0.8022c0.6422-0.2407 1.3029-0.4291 1.9755-0.5632l0.1579 0.8534c-0.6276 0.119-1.2441 0.2903-1.8432 0.512z"/></mask><mask><path d="m10.44 72.839c-0.69735-1.6184-1.0699-3.358-1.0966-5.12 0.01413-0.679 0.10284-1.3543 0.26454-2.0139 0.02986-0.1493 0.064-0.3029 0.09386-0.4608l0.85336 0.1664c-0.0299 0.1622-0.064 0.3158-0.0939 0.4694-0.1491 0.6021-0.2321 1.2187-0.2475 1.8389 0.0194 1.6554 0.3644 3.2907 1.0155 4.8128z"/></mask><mask><path d="m15.667 74.332c-2.829 0-5.5421-1.1238-7.5425-3.1242s-3.1242-4.7135-3.1242-7.5424c0-0.2176 0-0.4267 0.02133-0.6443 0.13187-2.1831 0.93159-4.2728 2.2908-5.9862 1.3592-1.7133 3.2122-2.9675 5.3081-3.5925 1.3684-0.407 2.8047-0.5351 4.2236-0.3768s2.7915 0.5998 4.0366 1.2984c1.5369 0.8617 2.8363 2.0907 3.7823 3.5772 0.9459 1.4865 1.5089 3.1842 1.6387 4.9413 0.1297 1.7572-0.1778 3.5191-0.8952 5.1284s-1.8223 3.0158-3.2159 4.0939c-1.8712 1.4383-4.1637 2.2209-6.5237 2.2272zm0-20.48c-0.9504 0.0031-1.895 0.1469-2.8032 0.4267-1.9262 0.5748-3.6294 1.7272-4.8794 3.3014-1.2499 1.5743-1.9863 3.4944-2.1095 5.5007 0 0.2006-0.02134 0.3926-0.02134 0.5846 0 2.6026 1.0339 5.0987 2.8743 6.939 1.8403 1.8404 4.3364 2.8743 6.9391 2.8743 1.0774 0.0017 2.1475-0.1772 3.1658-0.5291 1.0239-0.3434 1.9819-0.8585 2.8331-1.5232 1.6185-1.2524 2.8049-2.9794 3.3933-4.9395 0.5884-1.96 0.5494-4.0549-0.1117-5.9917-0.6611-1.9367-1.9111-3.6183-3.5752-4.8095-1.6641-1.1911-3.6589-1.8323-5.7053-1.8337z"/></mask><mask><path d="m16.704 58.729c-0.374 0-0.7396-0.1109-1.0506-0.3188-0.3109-0.2079-0.5531-0.5033-0.6961-0.849-0.1429-0.3456-0.1801-0.7259-0.1068-1.0926 0.0733-0.3668 0.2537-0.7036 0.5185-0.9677 0.2647-0.2642 0.6019-0.4439 0.9689-0.5163 0.3669-0.0725 0.7471-0.0344 1.0924 0.1093s0.6402 0.3866 0.8473 0.698c0.2072 0.3114 0.3174 0.6772 0.3165 1.0513 0 0.248-0.0489 0.4936-0.1439 0.7226-0.0951 0.2291-0.2344 0.4372-0.4099 0.6124-0.1756 0.1752-0.384 0.314-0.6133 0.4085s-0.475 0.1429-0.723 0.1423zm0-2.9226c-0.2051 0-0.4055 0.0608-0.576 0.1747s-0.3034 0.2758-0.3819 0.4653c-0.0785 0.1894-0.099 0.3979-0.059 0.599 0.04 0.2012 0.1388 0.3859 0.2838 0.5309s0.3297 0.2437 0.5308 0.2837 0.4096 0.0195 0.599-0.059c0.1895-0.0784 0.3514-0.2113 0.4653-0.3818 0.114-0.1705 0.1748-0.371 0.1748-0.576 0-0.275-0.1093-0.5387-0.3037-0.7332-0.1944-0.1944-0.4581-0.3036-0.7331-0.3036z"/></mask><mask><path d="m10.884 64.681c-0.3738 0-0.7392-0.1108-1.0501-0.3185-0.31083-0.2077-0.55309-0.5029-0.69615-0.8483s-0.18049-0.7254-0.10756-1.0921c0.07293-0.3666 0.25295-0.7034 0.51729-0.9677 0.26434-0.2644 0.6011-0.4444 0.9678-0.5173 0.3666-0.073 0.7467-0.0355 1.092 0.1075 0.3454 0.1431 0.6406 0.3854 0.8483 0.6962s0.3186 0.6763 0.3186 1.0501c-0.0012 0.5009-0.2007 0.981-0.5549 1.3353-0.3542 0.3542-0.8343 0.5537-1.3353 0.5548zm0-2.9269c-0.205 0-0.4055 0.0608-0.576 0.1747s-0.3034 0.2759-0.38185 0.4653c-0.07848 0.1895-0.09901 0.3979-0.059 0.5991 0.04 0.2011 0.13875 0.3858 0.28375 0.5308s0.3297 0.2438 0.5309 0.2838c0.2011 0.04 0.4095 0.0194 0.599-0.059 0.1894-0.0785 0.3514-0.2114 0.4653-0.3819s0.1747-0.3709 0.1747-0.576c0.0012-0.1369-0.0248-0.2726-0.0764-0.3994s-0.1278-0.2421-0.2242-0.3393c-0.0964-0.0971-0.2111-0.1743-0.3374-0.2269-0.1264-0.0526-0.2619-0.0797-0.3988-0.0797z"/></mask><mask><path d="m20.266 70.151c-0.3742 8e-4 -0.7402-0.1094-1.0517-0.3168-0.3115-0.2073-0.5544-0.5025-0.698-0.848-0.1436-0.3456-0.1814-0.726-0.1086-1.093 0.0728-0.3671 0.2529-0.7043 0.5175-0.9689s0.6018-0.4447 0.9688-0.5175c0.3671-0.0727 0.7475-0.035 1.093 0.1086 0.3456 0.1436 0.6407 0.3865 0.8481 0.698s0.3176 0.6775 0.3168 1.0517c0 0.5002-0.1987 0.9799-0.5524 1.3335-0.3537 0.3537-0.8333 0.5524-1.3335 0.5524zm0-2.9227c-0.2052-8e-4 -0.4061 0.0593-0.5772 0.1727-0.171 0.1134-0.3046 0.275-0.3837 0.4644s-0.1003 0.398-0.0608 0.5994c0.0396 0.2014 0.138 0.3865 0.2828 0.5319 0.1448 0.1455 0.3296 0.2446 0.5308 0.285 0.2012 0.0403 0.4099 0.0201 0.5996-0.0583 0.1897-0.0783 0.3519-0.2112 0.466-0.3818s0.175-0.3712 0.175-0.5765c0-0.2742-0.1086-0.5373-0.3021-0.7316s-0.4562-0.304-0.7304-0.3052z"/></mask></g><path d="m486.15 39.149c-0.124-0.6699-0.883-1.1435-1.404-1.4805-0.166-0.1067-0.623-0.2774-0.661-0.4267-3e-3 -0.1068 0.011-0.2134 0.042-0.3157l0.427-3.0678c0.124-0.9002 0.243-1.8005 0.367-2.7008 0.111-0.8277-0.286-1.3824-0.96-1.8474-1.374-0.9515-3.166-1.3355-4.783-1.6-2.028-0.3311-4.09-0.3985-6.135-0.2006-1.84 0.135-3.645 0.5673-5.347 1.28-0.913 0.4267-2.107 1.0923-1.958 2.2571 0.427 3.4645 0.93 6.9205 1.395 10.381 0.214 1.5829 0.427 3.1659 0.64 4.7488 0.035 0.3082 0.15 0.6019 0.334 0.8514s0.431 0.4459 0.716 0.5694c1.322 0.7168 2.961 0.9216 4.437 1.0581 1.963 0.1773 3.94 0.0898 5.88-0.2602 1.228-0.2262 3.515-0.5974 3.712-2.1334 0.243-1.9029 0.512-3.8058 0.768-5.7045l0.093-0.5803c0.696 0.1664 2.68 0.5206 2.437-0.8277zm-10.829-10.906c2.56 0 5.491 0.2901 7.787 1.5531 0.354 0.1962 1.177 0.6357 0.93 1.1562-0.248 0.5206-1.016 0.7808-1.485 0.9686-0.67 0.2475-1.359 0.4402-2.061 0.576-3.046 0.6033-6.173 0.6683-9.241 0.192-1.386-0.1429-2.733-0.5376-3.977-1.1648-0.307-0.175-0.815-0.4907-0.674-0.9088 0.111-0.2247 0.286-0.4116 0.503-0.5376 0.938-0.6027 1.98-1.0239 3.072-1.2416 1.685-0.4045 3.413-0.6037 5.146-0.5931zm6.69 17.984c-0.064 0.4992-0.887 0.7467-1.28 0.8875-0.815 0.2726-1.655 0.4613-2.509 0.5632-1.893 0.2517-3.811 0.2517-5.704 0-1.186-0.092-2.344-0.4061-3.414-0.9259-0.145-0.0633-0.27-0.1659-0.361-0.2962-0.09-0.1304-0.142-0.2835-0.151-0.4419-0.426-3.3835-0.913-6.767-1.369-10.15l-0.495-3.6694c0.97 0.5354 2.023 0.9046 3.115 1.0923 1.169 0.238 2.354 0.3934 3.545 0.4651 2.338 0.1675 4.688 0.037 6.993-0.3883 1.228-0.1767 2.415-0.5726 3.503-1.1691l-0.904 6.6987c-2.163-0.7123-4.275-1.5675-6.324-2.56-0.089-0.0343-0.177-0.0757-0.26-0.1237-0.115-0.0854-0.085-0.0427-0.141-0.175-0.106-0.2432-0.132-0.4266-0.358-0.6272-0.122-0.0977-0.266-0.1642-0.42-0.1936s-0.312-0.0208-0.462 0.0251c-0.149 0.0458-0.285 0.1275-0.396 0.2379-0.111 0.1105-0.193 0.2463-0.239 0.3957s-0.056 0.3078-0.027 0.4615c0.029 0.1538 0.095 0.2981 0.193 0.4205 0.097 0.1224 0.223 0.2191 0.366 0.2818s0.3 0.0894 0.456 0.0778c0.147-0.0244 0.29-0.0674 0.427-0.128 0.166-0.0512 0.166-0.0427 0.341 0.0384 2.075 1.0118 4.213 1.8897 6.4 2.6283 0.328 0.1066 0.324 0 0.324 0.273-0.014 0.2078-0.041 0.4144-0.081 0.6187l-0.273 2.0352zm-6.583-10.091c0 0.1152-0.163 0.1024-0.205 0.0299-0.043-0.0725 0.205-0.192 0.205-0.0299zm8.405 2.9867 0.128-0.9429c0.427 0.2432 1.152 0.6101 1.344 1.0965-0.418 0.1707-1.08-0.0555-1.472-0.1536z" fill="#fff"/><rect x="499.95" y="34.069" width="86" height="8" rx="2" fill="#ee847b"/><path d="m460.15 36.791c-27.5 0-89.363 85.055-109.36 85.055" stroke="#ee847b" stroke-width="2"/><path d="m482.97 90.212c-27.5 0-110.21 32.184-130.21 32.184" stroke="#ee847b" stroke-width="2"/><g transform="translate(98.357 46.198)" clip-path="url(#o)"><path d="m381.6 157.56c-0.179 9e-3 -0.354 0.055-0.516 0.134l-7.031 3.463c-0.182 0.089-0.342 0.22-0.467 0.381-0.126 0.161-0.215 0.35-0.26 0.551l-1.735 7.777c-0.04 0.179-0.044 0.365-0.013 0.546s0.098 0.354 0.196 0.508c0.023 0.037 0.049 0.074 0.076 0.109l4.867 6.236c0.126 0.161 0.286 0.292 0.468 0.381 0.182 0.09 0.381 0.136 0.583 0.136l7.805-2e-3c0.201 0 0.401-0.046 0.583-0.135 0.182-0.09 0.342-0.22 0.468-0.381l4.865-6.237c0.126-0.161 0.215-0.35 0.26-0.551s0.045-0.41 0-0.612l-1.738-7.777c-0.045-0.201-0.133-0.389-0.259-0.551-0.126-0.161-0.286-0.292-0.468-0.381l-7.032-3.461c-0.203-0.099-0.427-0.146-0.652-0.134z" fill="#fff"/><path d="m381.6 157c-0.189 0.01-0.373 0.059-0.543 0.143l-7.423 3.654c-0.192 0.094-0.361 0.232-0.494 0.402-0.133 0.171-0.227 0.369-0.274 0.582l-1.831 8.21c-0.043 0.189-0.047 0.385-0.014 0.576s0.103 0.374 0.206 0.537c0.025 0.039 0.052 0.078 0.081 0.115l5.138 6.583c0.133 0.17 0.301 0.308 0.493 0.402 0.193 0.095 0.403 0.144 0.616 0.144l8.239-2e-3c0.213 0 0.424-0.049 0.616-0.143s0.361-0.232 0.494-0.402l5.135-6.584c0.133-0.171 0.227-0.369 0.274-0.582 0.048-0.212 0.048-0.433 1e-3 -0.645l-1.834-8.211c-0.048-0.212-0.141-0.411-0.274-0.581s-0.302-0.308-0.494-0.402l-7.423-3.654c-0.215-0.106-0.451-0.155-0.689-0.142zm4e-3 0.563c0.224-0.011 0.449 0.035 0.652 0.135l7.032 3.46c0.182 0.09 0.341 0.22 0.467 0.381 0.126 0.162 0.215 0.35 0.26 0.551l1.737 7.778c0.045 0.201 0.045 0.41 0 0.611-0.045 0.202-0.133 0.39-0.259 0.552l-4.865 6.236c-0.126 0.162-0.286 0.292-0.468 0.381s-0.382 0.136-0.584 0.136l-7.804 1e-3c-0.202 1e-3 -0.401-0.046-0.583-0.135-0.182-0.09-0.342-0.22-0.468-0.382l-4.867-6.236c-0.027-0.035-0.053-0.071-0.076-0.109-0.098-0.154-0.165-0.327-0.196-0.508s-0.027-0.366 0.013-0.546l1.735-7.777c0.045-0.201 0.133-0.389 0.259-0.551 0.126-0.161 0.286-0.291 0.468-0.381l7.031-3.462c0.162-0.08 0.337-0.125 0.516-0.135z" fill="#ee847b"/><g clip-rule="evenodd" fill="#ee847b" fill-rule="evenodd"><path d="m377.39 164.58 4.286-1.281 4.286 1.281-4.286 1.281z"/><path d="m377.39 165.07v4.7l3.993 2.28 0.02-5.75z"/><path d="m385.96 165.07v4.7l-3.993 2.28-0.02-5.75z"/></g></g><path d="m490.14 148.95c-27.5 0-118.34-26.787-138.34-26.787" stroke="#ee847b" stroke-width="1.9994"/><path d="m463.77 212.55c-27.5 0-90.888-89.826-110.89-89.826" stroke="#ee847b" stroke-width="1.9994"/></g><defs><clipPath id="r"><rect width="629" height="246" fill="#fff"/></clipPath><clipPath id="o"><rect transform="translate(371,157)" width="22" height="22" fill="#fff"/></clipPath><clipPath id="c"><rect transform="translate(338,5)" width="22" height="22" fill="#fff"/></clipPath><mask id="a" maskUnits="userSpaceOnUse"><rect x=".32404" y=".22736" width="628.86" height="245.04" rx="2" fill="url(#b)"/></mask><linearGradient id="b" x1=".30854" x2="629.2" y1="122.75" y2="122.75" gradientUnits="userSpaceOnUse"><stop offset="0"/><stop offset=".59967"/><stop stop-color="#fff" offset=".82107"/></linearGradient></defs></svg>
