<?xml version="1.0" encoding="UTF-8"?>
<svg width="299.03mm" height="45.152mm" version="1.1" viewBox="0 0 299.03 45.152" xmlns="http://www.w3.org/2000/svg">
 <g transform="translate(109.24 -46.331)">
  <g transform="matrix(.41152 0 0 .41152 -171.86 32.494)" fill="none" stroke="#ee847b" stroke-linecap="round" stroke-width="9.72">
   <path d="m157.02 138.48 46.6-100"/>
   <path d="m203.62 38.483h23.3"/>
   <path d="m273.52 138.48h-23.3"/>
   <path d="m215.22 63.483 34.9 75"/>
   <path d="m226.92 38.483 46.6 100"/>
   <path d="m157.02 138.48h23.3"/>
   <path d="m195.52 107.98 36.074-5.9924"/>
   <path d="m180.32 138.48 46.6-100"/>
  </g>
  <path d="m-31.535 82.722 11.06-27.979h4.8507l11.06 27.979h-3.6865q-0.62089 0-1.0478-0.31044-0.38806-0.31044-0.54328-0.77611l-7.2566-19.442q-0.19403-0.6597-0.46567-1.397-0.23283-0.73731-0.50447-1.6686-0.23283 0.93133-0.50447 1.6686-0.23283 0.73731-0.46567 1.4358l-7.2178 19.403q-0.15522 0.42686-0.58208 0.77611-0.38806 0.31044-1.0089 0.31044zm3.2209 0v-2.5224h3.0268v2.5224zm3.4537-7.9163 0.81492-3.3373h11.875l0.81492 3.3373zm13.815 7.9163v-2.5224h3.1821v2.5224zm-21.654 0v-2.0179q0-0.46567 0.23283-0.6985 0.27164-0.27164 0.6985-0.34925l2.4836-0.50447 0.46567 3.5701zm5.6656 0 0.46567-3.5701 2.4836 0.50447q0.42686 0.07761 0.6597 0.34925 0.27164 0.23283 0.27164 0.6985v2.0179zm14.086 0v-2.0179q0-0.46567 0.23283-0.6985 0.23283-0.27164 0.6985-0.34925l2.4836-0.50447 0.46567 3.5701zm5.6268 0 0.46567-3.5701 2.4836 0.50447q0.46567 0.07761 0.6985 0.34925 0.23283 0.23283 0.23283 0.6985v2.0179zm8.3044 0v-27.979h8.382q3.3373 0 5.7044 0.89253 2.3671 0.85372 3.6089 2.6 1.2806 1.7463 1.2806 4.4626 0 1.9403-0.77611 3.5313-0.77611 1.591-2.2119 2.7164-1.397 1.0866-3.4149 1.7074 0.89253 0.42686 1.591 1.4358l7.3731 10.633h-4.3074q-1.2418 0-1.8239-0.97014l-6.2865-9.3133q-0.34925-0.50447-0.73731-0.6985-0.38806-0.23283-1.1642-0.23283h-2.4059v11.215zm4.8119-14.591h3.4537q2.9104 0 4.5014-1.3582 1.591-1.3582 1.591-3.7253 0-2.2507-1.5134-3.4149-1.4746-1.203-4.4626-1.203h-3.5701zm13.272 14.591-1.9791-4.0746 2.5224 0.50447zm-20.955 0v-2.0179q0-0.46567 0.23283-0.6985 0.27164-0.27164 0.73731-0.34925l2.4448-0.50447 0.50447 3.5701zm3.9194-27.979-0.50447 3.5701-2.4448-0.50447q-0.46567-0.11642-0.73731-0.34925-0.23283-0.27164-0.23283-0.73731v-1.9791zm2.7164 27.979 0.46567-3.5701 2.4836 0.50447q0.46567 0.07761 0.6985 0.34925 0.27164 0.23283 0.27164 0.6985v2.0179zm14.319 0 0.46567-3.5701 2.4836 0.50447q0.42686 0.07761 0.6597 0.34925 0.27164 0.23283 0.27164 0.6985v2.0179zm17.939 0.31044q-3.1821 0-5.7432-1.0478-2.5224-1.0866-4.2686-3.0656-1.7851-1.9791-2.6776-4.5791-0.89253-2.6388-0.89253-5.5104 0-3.2209 1.0478-5.8596t2.9104-4.5403q1.9015-1.9015 4.5403-2.9492 2.6388-1.0866 5.6656-1.0866 1.7074 0 3.2209 0.31044 1.5522 0.31044 2.9492 0.81492 1.4358 0.46567 2.7552 1.0089v3.2597l-2.6776-0.11642q-1.1642-0.50447-2.7552-0.85372-1.591-0.34925-3.1821-0.34925-2.988 0-5.1611 1.2806-2.1343 1.2806-3.2985 3.6089t-1.1642 5.4328q0 2.9104 1.0478 5.2388 1.0866 2.2895 3.1433 3.6477 2.0955 1.3194 5.1223 1.3194 1.7074 0 3.1821-0.50447t2.8716-1.7463q0.19403-0.15522 0.38806-0.23283 0.19403-0.11642 0.42686-0.11642 0.38806 0 0.6597 0.31044l1.9015 2.0179q-1.6298 1.9403-4.1134 3.1433-2.4836 1.1642-5.8985 1.1642zm5.9373-24.176 3.5701 0.93133v3.4537h-1.9403q-0.42686 0-0.6985-0.23283-0.23283-0.23283-0.34925-0.73731zm9.4298 23.865v-27.979h4.8119v12.185h13.737v-12.185h4.8119v27.979h-4.8119v-12.418h-13.737v12.418zm-2.8716 0v-2.0179q0-0.46567 0.23283-0.6985 0.27164-0.27164 0.73731-0.34925l2.4448-0.50447 0.50447 3.5701zm6.6746 0 0.46567-3.5701 2.4836 0.50447q0.42686 0.07761 0.6597 0.34925 0.27164 0.23283 0.27164 0.6985v2.0179zm-2.7552-27.979-0.50447 3.5701-2.4448-0.50447q-0.46567-0.11642-0.73731-0.34925-0.23283-0.27164-0.23283-0.73731v-1.9791zm6.6358 0v1.9791q0 0.46567-0.27164 0.73731-0.23283 0.23283-0.6597 0.34925l-2.4836 0.50447-0.46567-3.5701zm7.9551 27.979v-2.0179q0-0.46567 0.23283-0.6985 0.27164-0.27164 0.6985-0.34925l2.4836-0.50447 0.46567 3.5701zm6.6746 0 0.46567-3.5701 2.4836 0.50447q0.46567 0.07761 0.6985 0.34925 0.23283 0.23283 0.23283 0.6985v2.0179zm-2.794-27.979-0.46567 3.5701-2.4836-0.50447q-0.42686-0.11642-0.6985-0.34925-0.23283-0.27164-0.23283-0.73731v-1.9791zm6.6746 0v1.9791q0 0.46567-0.23283 0.73731-0.23283 0.23283-0.6985 0.34925l-2.4836 0.50447-0.46567-3.5701zm16.143 28.289q-3.1433 0-5.7432-1.0478-2.5612-1.0866-4.4238-3.0268-1.8239-1.9015-2.8716-4.5014-1.0089-2.6388-1.0089-5.7044 0-3.1433 1.0089-5.7432 1.0478-2.6388 2.8716-4.5403 1.8627-1.9015 4.4238-2.9492 2.6-1.0866 5.7432-1.0866 3.1433 0 5.7432 1.0866 2.6388 1.0478 4.4626 2.9492 1.9015 1.9403 2.8716 4.5791 1.009 2.6 1.009 5.6656 0 3.1044-1.009 5.7432-0.97014 2.6-2.8716 4.5014-1.8239 1.9403-4.4626 3.0268-2.6 1.0478-5.7432 1.0478zm0-4.0746q2.8716 0 4.9283-1.2418 2.0567-1.2418 3.1433-3.5313 1.0866-2.3283 1.0866-5.4716 0-3.1044-1.0866-5.394-1.0866-2.3283-3.1433-3.5701-2.0567-1.2806-4.9283-1.2806-2.8328 0-4.9283 1.2806-2.0567 1.2418-3.1821 3.5701-1.0866 2.2895-1.0866 5.4328 0 3.1044 1.0866 5.394 1.1254 2.2895 3.1821 3.5701 2.0955 1.2418 4.9283 1.2418zm18.976 3.7641v-27.979h10.633q3.1433 0 5.7432 1.0478 2.6 1.0089 4.4238 2.8328 1.8627 1.8627 2.8716 4.4626 1.009 2.5612 1.009 5.6268 0 3.1044-1.009 5.7044-1.0089 2.5612-2.8716 4.385-1.8239 1.8627-4.4238 2.9104-2.6 1.0089-5.7432 1.0089zm4.8119-3.7641h5.8208q2.8716 0 4.9283-1.2418 2.0567-1.2806 3.1433-3.5701 1.0866-2.2895 1.0866-5.4328 0-3.1044-1.0866-5.394-1.0866-2.3283-3.1433-3.5701-2.0567-1.2418-4.9283-1.2418h-5.8208zm-7.6835 3.7641v-2.0179q0-0.46567 0.23284-0.6985 0.27164-0.27164 0.7373-0.34925l2.4448-0.50447 0.50447 3.5701zm3.9194-27.979-0.50447 3.5701-2.4448-0.50447q-0.46566-0.11642-0.7373-0.34925-0.23284-0.27164-0.23284-0.73731v-1.9791zm28.522 27.979v-27.979h17.54v3.7641h-12.728v8.3044h9.7014v3.6477h-9.7014v8.4984h12.728v3.7641zm13.97-2.8328 0.58209-3.4537q0.11641-0.50447 0.34925-0.73731 0.27164-0.23283 0.6985-0.23283h1.9403v3.4925zm0-22.313 3.5701 0.93133v3.4537h-1.9403q-0.42686 0-0.6985-0.23283-0.23284-0.23283-0.34925-0.6985zm-12.922-2.8328-0.46567 3.5701-2.4836-0.50447q-0.46566-0.11642-0.6985-0.34925-0.23283-0.27164-0.23283-0.73731v-1.9791zm-3.9194 27.979v-2.0179q0-0.46567 0.23284-0.6985 0.27164-0.27164 0.7373-0.34925l2.4448-0.50447 0.50447 3.5701zm23.206 0 9.4298-14.397-9.0417-13.582h4.7731q0.46566 0 0.6985 0.15522 0.23283 0.11642 0.42686 0.42686l6.6746 10.555q0.0776-0.19403 0.19403-0.42686 0.11642-0.23283 0.23283-0.46567l6.1701-9.585q0.19403-0.34925 0.42686-0.50447 0.27164-0.15522 0.62089-0.15522h4.5403l-9.0805 13.388 9.3522 14.591h-4.7731q-0.46567 0-0.77611-0.27164-0.27164-0.27164-0.46567-0.58208l-6.8298-11.021q-0.0776 0.19403-0.19402 0.38806-0.0776 0.19403-0.15523 0.38806l-6.5193 10.245q-0.19402 0.31044-0.50447 0.58208-0.27164 0.27164-0.73731 0.27164zm3.4537 0v-2.0955h3.1432v2.0955zm15.173 0v-2.0955h3.1432v2.0955zm-14.358-26.853v-1.1254h2.8716v1.1254zm14.474 0.34925v-1.4746h2.8716v1.4746zm-15.212-1.4746-0.46567 3.5701-2.4836-0.50447q-0.46566-0.11642-0.7373-0.34925-0.23284-0.27164-0.23284-0.73731v-1.9791zm6.6746 0v1.9791q0 0.46567-0.27164 0.73731-0.23283 0.23283-0.6985 0.34925l-2.4448 0.50447-0.46567-3.5701zm9.1581 0-0.46566 3.5701-2.4836-0.50447q-0.46567-0.11642-0.6985-0.34925-0.23284-0.27164-0.23284-0.73731v-1.9791zm6.6746 0v1.9791q0 0.46567-0.27164 0.73731-0.23284 0.23283-0.6597 0.34925l-2.4836 0.50447-0.46566-3.5701zm-26.815 27.979v-2.0179q0-0.46567 0.23283-0.6985 0.27164-0.27164 0.6985-0.34925l2.4836-0.50447 0.46567 3.5701zm6.6746 0 0.46567-3.5701 2.4836 0.50447q0.46566 0.07761 0.6985 0.34925 0.23283 0.23283 0.23283 0.6985v2.0179zm16.376 0 0.46567-3.5701 2.4836 0.50447q0.46567 0.07761 0.6985 0.34925 0.27164 0.23283 0.27164 0.6985v2.0179zm-6.6746 0v-2.0179q0-0.46567 0.23283-0.6985 0.27164-0.27164 0.73731-0.34925l2.4448-0.50447 0.46567 3.5701z" fill="#ee847b" stroke-miterlimit="1" style="font-variation-settings:'wght' 600" aria-label="ARCHODEX"/>
  <path d="m-45.428 49.973v37.87" fill="none" stroke="#ee847b" stroke-linecap="round" stroke-miterlimit="1" stroke-width="2" style="font-variation-settings:'wght' 340"/>
 </g>
</svg>
