<?xml version="1.0" encoding="UTF-8"?>
<svg width="600" height="400.44" fill="none" version="1.1" viewBox="0 0 600 400.44" xmlns="http://www.w3.org/2000/svg">
 <defs>
  <clipPath id="m">
   <rect transform="translate(256,72)" width="22" height="21" fill="#fff"/>
  </clipPath>
  <clipPath id="n">
   <rect transform="translate(246,157)" width="22" height="22" fill="#fff"/>
  </clipPath>
  <clipPath id="o">
   <rect transform="translate(225,5)" width="22" height="22" fill="#fff"/>
  </clipPath>
  <clipPath id="p">
   <rect transform="translate(41,173)" width="22" height="22" fill="#fff"/>
  </clipPath>
  <clipPath id="q">
   <rect transform="translate(15,122)" width="22" height="21" fill="#fff"/>
  </clipPath>
  <mask id="a" fill="#ffffff">
   <path d="m20.266 66.151c-0.3742 8e-4 -0.7402-0.1094-1.0517-0.3168-0.3115-0.2073-0.5544-0.5025-0.698-0.848-0.1436-0.3456-0.1814-0.726-0.1086-1.093 0.0728-0.3671 0.2529-0.7043 0.5175-0.9689s0.6018-0.4447 0.9688-0.5175c0.3671-0.0727 0.7475-0.035 1.093 0.1086 0.3456 0.1436 0.6407 0.3865 0.8481 0.698s0.3176 0.6775 0.3168 1.0517c0 0.5002-0.1987 0.9799-0.5524 1.3335-0.3537 0.3537-0.8333 0.5524-1.3335 0.5524zm0-2.9227c-0.2052-8e-4 -0.4061 0.0593-0.5772 0.1727-0.171 0.1134-0.3046 0.275-0.3837 0.4644s-0.1003 0.398-0.0608 0.5994c0.0396 0.2014 0.138 0.3865 0.2828 0.5319 0.1448 0.1455 0.3296 0.2446 0.5308 0.285 0.2012 0.0403 0.4099 0.0201 0.5996-0.0583 0.1897-0.0783 0.3519-0.2112 0.466-0.3818s0.175-0.3712 0.175-0.5765c0-0.2742-0.1086-0.5373-0.3021-0.7316s-0.4562-0.304-0.7304-0.3052z"/>
  </mask>
  <mask id="b" fill="#ffffff">
   <path d="m10.884 60.681c-0.3738 0-0.7392-0.1108-1.0501-0.3185-0.31083-0.2077-0.55309-0.5029-0.69615-0.8483s-0.18049-0.7254-0.10756-1.0921c0.07293-0.3666 0.25295-0.7034 0.51729-0.9677 0.26434-0.2644 0.6011-0.4444 0.9678-0.5173 0.3666-0.073 0.7467-0.0355 1.092 0.1075 0.3454 0.1431 0.6406 0.3854 0.8483 0.6962s0.3186 0.6763 0.3186 1.0501c-0.0012 0.5009-0.2007 0.981-0.5549 1.3353-0.3542 0.3542-0.8343 0.5537-1.3353 0.5548zm0-2.9269c-0.205 0-0.4055 0.0608-0.576 0.1747s-0.3034 0.2759-0.38185 0.4653c-0.07848 0.1895-0.09901 0.3979-0.059 0.5991 0.04 0.2011 0.13875 0.3858 0.28375 0.5308s0.3297 0.2438 0.5309 0.2838c0.2011 0.04 0.4095 0.0194 0.599-0.059 0.1894-0.0785 0.3514-0.2114 0.4653-0.3819s0.1747-0.3709 0.1747-0.576c0.0012-0.1369-0.0248-0.2726-0.0764-0.3994s-0.1278-0.2421-0.2242-0.3393c-0.0964-0.0971-0.2111-0.1743-0.3374-0.2269-0.1264-0.0526-0.2619-0.0797-0.3988-0.0797z"/>
  </mask>
  <mask id="c" fill="#ffffff">
   <path d="m16.704 54.729c-0.374 0-0.7396-0.1109-1.0506-0.3188-0.3109-0.2079-0.5531-0.5033-0.6961-0.849-0.1429-0.3456-0.1801-0.7259-0.1068-1.0926 0.0733-0.3668 0.2537-0.7036 0.5185-0.9677 0.2647-0.2642 0.6019-0.4439 0.9689-0.5163 0.3669-0.0725 0.7471-0.0344 1.0924 0.1093s0.6402 0.3866 0.8473 0.698c0.2072 0.3114 0.3174 0.6772 0.3165 1.0513 0 0.248-0.0489 0.4936-0.1439 0.7226-0.0951 0.2291-0.2344 0.4372-0.4099 0.6124-0.1756 0.1752-0.384 0.314-0.6133 0.4085s-0.475 0.1429-0.723 0.1423zm0-2.9226c-0.2051 0-0.4055 0.0608-0.576 0.1747s-0.3034 0.2758-0.3819 0.4653c-0.0785 0.1894-0.099 0.3979-0.059 0.599 0.04 0.2012 0.1388 0.3859 0.2838 0.5309s0.3297 0.2437 0.5308 0.2837 0.4096 0.0195 0.599-0.059c0.1895-0.0784 0.3514-0.2113 0.4653-0.3818 0.114-0.1705 0.1748-0.371 0.1748-0.576 0-0.275-0.1093-0.5387-0.3037-0.7332-0.1944-0.1944-0.4581-0.3036-0.7331-0.3036z"/>
  </mask>
  <mask id="d" fill="#ffffff">
   <path d="m15.667 70.332c-2.829 0-5.5421-1.1238-7.5425-3.1242-2.0004-2.0004-3.1242-4.7135-3.1242-7.5424 0-0.2176 0-0.4267 0.02133-0.6443 0.13187-2.1831 0.93159-4.2728 2.2908-5.9862 1.3592-1.7133 3.2122-2.9675 5.3081-3.5925 1.3684-0.407 2.8047-0.5351 4.2236-0.3768s2.7915 0.5998 4.0366 1.2984c1.5369 0.8617 2.8363 2.0907 3.7823 3.5772 0.9459 1.4865 1.5089 3.1842 1.6387 4.9413 0.1297 1.7572-0.1778 3.5191-0.8952 5.1284s-1.8223 3.0158-3.2159 4.0939c-1.8712 1.4383-4.1637 2.2209-6.5237 2.2272zm0-20.48c-0.9504 0.0031-1.895 0.1469-2.8032 0.4267-1.9262 0.5748-3.6294 1.7272-4.8794 3.3014-1.2499 1.5743-1.9863 3.4944-2.1095 5.5007 0 0.2006-0.02134 0.3926-0.02134 0.5846 0 2.6026 1.0339 5.0987 2.8743 6.939 1.8403 1.8404 4.3364 2.8743 6.9391 2.8743 1.0774 0.0017 2.1475-0.1772 3.1658-0.5291 1.0239-0.3434 1.9819-0.8585 2.8331-1.5232 1.6185-1.2524 2.8049-2.9794 3.3933-4.9395 0.5884-1.96 0.5494-4.0549-0.1117-5.9917-0.6611-1.9367-1.9111-3.6183-3.5752-4.8095-1.6641-1.1911-3.6589-1.8323-5.7053-1.8337z"/>
  </mask>
  <mask id="e" fill="#ffffff">
   <path d="m10.44 68.839c-0.69735-1.6184-1.0699-3.358-1.0966-5.12 0.01413-0.679 0.10284-1.3543 0.26454-2.0139 0.02986-0.1493 0.064-0.3029 0.09386-0.4608l0.85336 0.1664c-0.0299 0.1622-0.064 0.3158-0.0939 0.4694-0.1491 0.6021-0.2321 1.2187-0.2475 1.8389 0.0194 1.6554 0.3644 3.2907 1.0155 4.8128z"/>
  </mask>
  <mask id="f" fill="#ffffff">
   <path d="m18.888 51.678-0.2902-0.8022c0.6422-0.2407 1.3029-0.4291 1.9755-0.5632l0.1579 0.8534c-0.6276 0.119-1.2441 0.2903-1.8432 0.512z"/>
  </mask>
  <mask id="g" fill="#ffffff">
   <path d="m12.544 56.739-0.7168-0.465c0.6263-1.0172 1.3982-1.9372 2.2912-2.7307l0.5632 0.6443c-0.8339 0.741-1.5542 1.6007-2.1376 2.5514z"/>
  </mask>
  <mask id="h" fill="#ffffff">
   <path d="m5.5461 59.452-0.19627-0.8277c0.94609-0.2317 1.9147-0.3591 2.8885-0.3797l0.02133 0.8533c-0.91474 0.0187-1.8247 0.1375-2.7136 0.3541z"/>
  </mask>
  <mask id="i" fill="#ffffff">
   <path d="m19.11 69.756-0.2731-0.8064c1.0221-0.3444 1.9786-0.8594 2.8288-1.5232l0.5248 0.6742c-0.926 0.7218-1.9676 1.2816-3.0805 1.6554z"/>
  </mask>
  <mask id="j" fill="#ffffff">
   <path d="m21.529 67.917c-0.1579-0.4267-0.3371-0.8192-0.5334-1.216l0.7638-0.3797c0.2104 0.4169 0.3998 0.8441 0.5674 1.28z"/>
  </mask>
  <mask id="k" fill="#ffffff">
   <path d="m18.013 62.823c-1.3467-1.3376-2.9749-2.358-4.7659-2.9867l0.2646-0.8107c1.9074 0.6695 3.6418 1.7554 5.0773 3.1787z"/>
  </mask>
  <mask id="l" fill="#ffffff">
   <path d="m19.353 69.551-0.7595-0.3925c0.4047-0.7697 0.7293-1.5789 0.9685-2.4149l0.8192 0.2389c-0.2547 0.8889-0.5992 1.7495-1.0282 2.5685zm0.7936-7.8122c-0.1476-2.3891-0.9233-4.6969-2.2486-6.6902l0.7126-0.465c1.4084 2.1161 2.2327 4.5668 2.3893 7.104zm-5.6278-10.296c-0.6192-0.4624-1.279-0.868-1.9712-1.2117l0.3883-0.7595c0.7369 0.3625 1.4395 0.791 2.0992 1.28z"/>
  </mask>
  <clipPath id="r">
   <rect transform="translate(395.5,184)" width="22" height="21" fill="#fff"/>
  </clipPath>
 </defs>
 <g transform="translate(-3.3805 .81153)">
  <rect x="148.62" y="342.22" width="105.02" height="35.4" rx="1.18" stroke="#ee847b" stroke-width="2.36"/>
  <path d="m147.44 343.4c0-1.3034 1.0566-2.36 2.36-2.36h35.4v37.76h-35.4c-1.3034 0-2.36-1.0566-2.36-2.36z" fill="#ee847b" stroke-width="1.18"/>
  <rect x="194.64" y="355.2" width="41.3" height="9.44" rx="2.36" fill="#ee847b" stroke-width="1.18"/>
  <rect x="463.27" y="231.24" width="105.02" height="35.4" rx="1.18" stroke="#ee847b" stroke-width="2.36"/>
  <path d="m462.09 232.42c0-1.3039 1.0561-2.36 2.36-2.36h35.4v37.76h-35.4c-1.3039 0-2.36-1.0561-2.36-2.36z" fill="#ee847b" stroke-width="1.18"/>
  <rect x="509.29" y="244.22" width="41.3" height="9.44" rx="2.36" fill="#ee847b" stroke-width="1.18"/>
  <g transform="matrix(1.18 0 0 1.18 1.3005 20.017)" clip-path="url(#r)">
   <path d="m406.1 184.55c-0.179 9e-3 -0.354 0.054-0.515 0.131l-7.032 3.359c-0.182 0.087-0.341 0.214-0.467 0.37-0.126 0.157-0.215 0.34-0.26 0.535l-1.735 7.546c-0.04 0.174-0.044 0.354-0.013 0.53 0.031 0.175 0.098 0.343 0.196 0.493 0.024 0.036 0.049 0.072 0.076 0.106l4.867 6.051c0.126 0.156 0.286 0.283 0.468 0.37s0.381 0.132 0.583 0.132l7.805-2e-3c0.202 0 0.401-0.045 0.583-0.132 0.182-0.086 0.342-0.213 0.468-0.369l4.865-6.052c0.126-0.157 0.215-0.339 0.26-0.535 0.045-0.195 0.045-0.398 0-0.593l-1.738-7.547c-0.045-0.195-0.133-0.378-0.259-0.535-0.126-0.156-0.286-0.283-0.468-0.37l-7.032-3.357c-0.203-0.097-0.427-0.142-0.652-0.131z" fill="#fff"/>
   <path d="m406.1 184c-0.189 0.01-0.373 0.057-0.543 0.138l-7.423 3.546c-0.192 0.092-0.361 0.225-0.494 0.391-0.133 0.165-0.227 0.358-0.274 0.564l-1.831 7.966c-0.043 0.184-0.047 0.374-0.014 0.56 0.033 0.185 0.103 0.362 0.206 0.52 0.025 0.039 0.052 0.076 0.081 0.112l5.138 6.388c0.133 0.165 0.301 0.299 0.493 0.39 0.193 0.092 0.403 0.14 0.616 0.14l8.239-2e-3c0.213 0 0.424-0.047 0.616-0.139 0.192-0.091 0.361-0.225 0.494-0.39l5.135-6.389c0.133-0.165 0.227-0.358 0.274-0.564 0.048-0.206 0.048-0.42 1e-3 -0.627l-1.834-7.967c-0.048-0.206-0.141-0.399-0.274-0.564s-0.302-0.298-0.494-0.39l-7.423-3.546c-0.215-0.102-0.451-0.149-0.689-0.137zm4e-3 0.547c0.224-0.012 0.449 0.033 0.652 0.13l7.032 3.358c0.182 0.087 0.341 0.213 0.467 0.37 0.126 0.156 0.215 0.339 0.26 0.534l1.737 7.547c0.045 0.195 0.045 0.398 0 0.593-0.045 0.196-0.133 0.379-0.259 0.535l-4.865 6.052c-0.126 0.157-0.286 0.283-0.468 0.37-0.182 0.086-0.382 0.131-0.584 0.131l-7.804 2e-3c-0.202 0-0.401-0.045-0.583-0.132s-0.342-0.213-0.468-0.37l-4.867-6.051c-0.027-0.034-0.053-0.069-0.076-0.106-0.098-0.15-0.165-0.317-0.196-0.493-0.031-0.175-0.027-0.356 0.013-0.529l1.735-7.547c0.045-0.195 0.133-0.378 0.259-0.534 0.126-0.157 0.286-0.284 0.468-0.37l7.031-3.36c0.162-0.077 0.337-0.121 0.516-0.13z" fill="#ee847b"/>
   <path d="m406.72 193.11h4.39" stroke="#ee847b" stroke-linejoin="round" stroke-miterlimit="10" stroke-width="1.25"/>
   <path d="m404.22 190.6h6.896" stroke="#ee847b" stroke-linejoin="round" stroke-miterlimit="10" stroke-width="1.25"/>
   <path d="m401.24 190.6h1.727z" clip-rule="evenodd" fill="#fff" fill-rule="evenodd"/>
   <path d="m401.24 190.6h1.727" stroke="#ee847b" stroke-linejoin="round" stroke-miterlimit="10" stroke-width="1.25"/>
   <path d="m403.53 193.51c0-1.381 1.197-2.501 2.674-2.501 1.476 0 2.673 1.12 2.673 2.501h-1.25c0-0.69-0.637-1.25-1.423-1.25s-1.423 0.56-1.423 1.25z" clip-rule="evenodd" fill="#ee847b" fill-rule="evenodd" stroke="#fff" stroke-linecap="square" stroke-miterlimit="10" stroke-width=".25"/>
   <g stroke="#ee847b" stroke-linejoin="round" stroke-miterlimit="10" stroke-width="1.25">
    <path d="m406.72 195.61h4.39"/>
    <path d="m404.22 198.12h6.896"/>
    <path d="m401.24 198.12h1.727"/>
   </g>
   <path d="m402.87 193.44h6.649v4.33h-6.649z" clip-rule="evenodd" fill="#ee847b" fill-rule="evenodd" stroke="#fff" stroke-linecap="square" stroke-miterlimit="10" stroke-width=".25"/>
   <path d="m406.2 196.26c0.362 0 0.657-0.294 0.657-0.657s-0.295-0.657-0.657-0.657c-0.363 0-0.658 0.294-0.658 0.657s0.295 0.657 0.658 0.657z" fill="#fff"/>
  </g>
  <rect x="298.66" y="99.077" width="105.02" height="35.4" rx="1.18" stroke="#ee847b" stroke-width="2.36"/>
  <path d="m297.48 100.26c0-1.3034 1.0561-2.36 2.36-2.36h35.4v37.76h-35.4c-1.3039 0-2.36-1.0566-2.36-2.36z" fill="#ee847b" stroke-width="1.18"/>
  <rect x="344.68" y="112.06" width="41.3" height="9.44" rx="2.36" fill="#ee847b" stroke-width="1.18"/>
  <rect x="462.09" y="168.7" width="105.02" height="35.4" rx="1.18" stroke="#ee847b" stroke-width="2.36"/>
  <path d="m460.91 169.88c0-1.3039 1.0561-2.36 2.36-2.36h35.4v37.76h-35.4c-1.3039 0-2.36-1.0561-2.36-2.36z" fill="#ee847b" stroke-width="1.18"/>
  <rect x="508.11" y="181.68" width="41.3" height="9.44" rx="2.36" fill="#ee847b" stroke-width="1.18"/>
  <rect x="288.04" y="200.56" width="105.02" height="35.4" rx="1.18" stroke="#ee847b" stroke-width="2.36"/>
  <path d="m286.86 201.74c0-1.3039 1.0561-2.36 2.36-2.36h35.4v37.76h-35.4c-1.3039 0-2.36-1.0561-2.36-2.36z" fill="#ee847b" stroke-width="1.18"/>
  <rect x="334.06" y="213.54" width="41.3" height="9.44" rx="2.36" fill="#ee847b" stroke-width="1.18"/>
  <rect x="48.622" y="166.96" width="162.84" height="35.4" rx="1.18" stroke="#ee847b" stroke-width="2.36"/>
  <path d="m47.442 168.14c0-1.3039 1.0566-2.36 2.36-2.36h35.4v37.76h-35.4c-1.3034 0-2.36-1.0561-2.36-2.36z" fill="#ee847b" stroke-width="1.18"/>
  <rect x="94.642" y="179.94" width="100.3" height="9.44" rx="2.36" fill="#ee847b" stroke-width="1.18"/>
  <path d="m254.82 359.92h29.5" stroke="#ee847b" stroke-width="2.36"/>
  <rect x="285.5" y="342.22" width="112.1" height="35.4" rx="1.18" stroke="#ee847b" stroke-width="2.36"/>
  <path d="m284.32 343.4c0-1.3034 1.0561-2.36 2.36-2.36h35.4v37.76h-35.4c-1.3039 0-2.36-1.0566-2.36-2.36z" fill="#ee847b" stroke-width="1.18"/>
  <g fill="#fff" stroke-width="1.18">
   <path d="m315.24 361.19c-0.14632-0.79049-1.0419-1.3493-1.6567-1.747-0.19588-0.12591-0.73514-0.32734-0.77998-0.50351-4e-3 -0.12602 0.013-0.25181 0.0496-0.37253l0.50386-3.62c0.14632-1.0622 0.28674-2.1246 0.43306-3.1869 0.13098-0.97669-0.33748-1.6312-1.1328-2.1799-1.6213-1.1228-3.7359-1.5759-5.6439-1.888-2.393-0.39069-4.8262-0.47023-7.2393-0.2367-2.1712 0.1593-4.3011 0.66941-6.3095 1.5104-1.0773 0.5035-2.4863 1.2889-2.3104 2.6634 0.50386 4.0881 1.0974 8.1662 1.6461 12.249 0.25252 1.8678 0.50386 3.7358 0.7552 5.6036 0.0413 0.36368 0.177 0.71024 0.39412 1.0046s0.50858 0.52617 0.84488 0.6719c1.56 0.84582 3.494 1.0875 5.2357 1.2486 2.3163 0.20922 4.6492 0.10597 6.9384-0.30703 1.449-0.26692 4.1477-0.70493 4.3802-2.5174 0.28674-2.2454 0.60416-4.4908 0.90624-6.7313l0.10974-0.68476c0.82128 0.19635 3.1624 0.61431 2.8757-0.97668zm-12.778-12.869c3.0208 0 6.4794 0.34232 9.1887 1.8327 0.41772 0.23151 1.3889 0.75012 1.0974 1.3643-0.29264 0.61431-1.1989 0.92135-1.7523 1.143-0.7906 0.29205-1.6036 0.51944-2.432 0.67968-3.5943 0.71189-7.2841 0.78859-10.904 0.22656-1.6355-0.16862-3.2249-0.63437-4.6929-1.3745-0.36226-0.2065-0.9617-0.57903-0.79532-1.0724 0.13098-0.26514 0.33748-0.48569 0.59354-0.63437 1.1068-0.71118 2.3364-1.2082 3.625-1.4651 1.9883-0.47731 4.0273-0.71237 6.0723-0.69986zm7.8942 21.221c-0.0755 0.58905-1.0467 0.8811-1.5104 1.0472-0.9617 0.32167-1.9529 0.54433-2.9606 0.66457-2.2337 0.29701-4.497 0.29701-6.7307 0-1.3995-0.10856-2.7659-0.47919-4.0285-1.0926-0.1711-0.0747-0.3186-0.19576-0.42598-0.34951-0.1062-0.15388-0.16756-0.33453-0.17818-0.52145-0.50268-3.9925-1.0773-7.9851-1.6154-11.977l-0.5841-4.3299c1.1446 0.63177 2.3871 1.0674 3.6757 1.2889 1.3794 0.28084 2.7777 0.46422 4.1831 0.54882 2.7588 0.19765 5.5318 0.0437 8.2517-0.45819 1.449-0.20851 2.8497-0.67567 4.1335-1.3795l-1.0667 7.9045c-2.5523-0.84052-5.0445-1.8496-7.4623-3.0208-0.10502-0.0405-0.20886-0.0893-0.3068-0.14597-0.1357-0.10077-0.1003-0.0504-0.16638-0.2065-0.12508-0.28698-0.15576-0.50339-0.42244-0.7401-0.14396-0.11528-0.31388-0.19375-0.4956-0.22844-0.18172-0.0347-0.36816-0.0245-0.54516 0.0296-0.17582 0.054-0.3363 0.15045-0.46728 0.28072-0.13098 0.13039-0.22774 0.29063-0.28202 0.46692-0.0543 0.1763-0.0661 0.36321-0.0319 0.54457 0.0342 0.18149 0.1121 0.35176 0.22774 0.49619 0.11446 0.14444 0.26314 0.25854 0.43188 0.33253 0.16874 0.074 0.354 0.10549 0.53808 0.0918 0.17346-0.0288 0.3422-0.0795 0.50386-0.15104 0.19588-0.0604 0.19588-0.0504 0.40238 0.0453 2.4485 1.1939 4.9713 2.2298 7.552 3.1014 0.38704 0.12579 0.38232 0 0.38232 0.32214-0.0165 0.24521-0.0484 0.48899-0.0956 0.73007l-0.32214 2.4015zm-7.7679-11.907c0 0.13594-0.19234 0.12083-0.2419 0.0353-0.0507-0.0856 0.2419-0.22656 0.2419-0.0353zm9.9179 3.5243 0.15104-1.1126c0.50386 0.28697 1.3594 0.71991 1.5859 1.2939-0.49324 0.20142-1.2744-0.0655-1.737-0.18125z"/>
   <path d="m484.91 181.34c0-1.4608-2.865-2.1346-5.5389-2.1346-2.6727 0-5.5377 0.67378-5.5377 2.1346-2e-3 0.0732 6e-3 0.14514 0.0248 0.21594v9.0884c-0.0248 1.5104 2.845 2.1547 5.5389 2.1547 2.6928 0 5.5377-0.66552 5.5377-2.1252v-9.3338zm-5.5283-1.1234c2.9347 0 4.5312 0.80122 4.5312 1.1281s-1.5859 1.1281-4.5312 1.1281-4.5312-0.79532-4.5312-1.1281 1.5954-1.1281 4.5312-1.1281zm4.5312 10.462c0 0.32214-1.5906 1.1186-4.5312 1.1186s-4.5312-0.7965-4.5312-1.1186v-1.5906c1.062 0.57938 2.8438 0.8555 4.5312 0.8555 1.6862 0 3.4539-0.2714 4.5312-0.84016zm0-2.8639c0 0.32214-1.5859 1.1269-4.5312 1.1269s-4.5312-0.80476-4.5312-1.1269h0.0153v-1.9234c1.062 0.57348 2.8438 0.85078 4.5312 0.85078 1.6862 0 3.4539-0.27258 4.5312-0.84134zm0-3.2072c0 0.32686-1.5859 1.1328-4.5312 1.1328s-4.5312-0.80594-4.5312-1.1328h0.0153v-1.9635c1.0714 0.56876 2.8344 0.83072 4.5312 0.83072 1.6957 0 3.4786-0.27258 4.5312-0.85078z"/>
   <path d="m468.53 197.59h3.3182v1.0065h-4.5312c-0.13334 0-0.26196-0.0531-0.35636-0.1475s-0.1475-0.22302-0.1475-0.35636v-4.5312h1.0065v3.3075l3.776-3.7701 0.70564 0.70918z"/>
   <path d="m491.98 193.57v4.5312c0 0.13334-0.0531 0.26196-0.1475 0.35636s-0.22184 0.1475-0.35518 0.1475h-4.5312v-1.0065h3.317l-3.7205-3.7312 0.71036-0.70446 3.7205 3.7146v-3.3075z"/>
   <path d="m491.98 173.93v4.5312h-1.0065v-3.3229l-3.7205 3.7205-0.71036-0.70918 3.7158-3.7158h-3.3123v-1.0065h4.5312c0.13334 0 0.26078 0.0519 0.35518 0.1475 0.0944 0.0944 0.1475 0.22184 0.1475 0.35518z"/>
   <path d="m472.3 178.21-0.70564 0.70446-3.776-3.7713v3.3134h-1.0065v-4.5312c0-0.13334 0.0531-0.26196 0.1475-0.35636s0.22302-0.1475 0.35636-0.1475h4.5312v1.0065h-3.3182z"/>
   <path d="m471.67 190.52c-3.0763-1.108-4.8392-2.799-4.8392-4.6374 0-1.8373 1.7629-3.5235 4.8392-4.6362l0.3422 0.94636c-2.6137 0.94164-4.1737 2.3211-4.1737 3.6899 0 1.37 1.56 2.7494 4.1737 3.691z"/>
   <path d="m486.84 190.63-0.32214-0.95698c2.7942-0.94164 4.4604-2.3612 4.4604-3.7913 0-1.429-1.6662-2.8497-4.4604-3.7961l0.32214-0.95108c3.2674 1.0974 5.1448 2.8391 5.1448 4.7471s-1.8774 3.6403-5.1448 4.7483z"/>
  </g>
  <g fill="#ee847b">
   <g stroke="#fff" stroke-width="2">
    <path transform="matrix(1.18 0 0 1.18 147.44 289.12)" d="m19.353 69.551-0.7595-0.3925c0.4047-0.7697 0.7293-1.5789 0.9685-2.4149l0.8192 0.2389c-0.2547 0.8889-0.5992 1.7495-1.0282 2.5685zm0.7936-7.8122c-0.1476-2.3891-0.9233-4.6969-2.2486-6.6902l0.7126-0.465c1.4084 2.1161 2.2327 4.5668 2.3893 7.104zm-5.6278-10.296c-0.6192-0.4624-1.279-0.868-1.9712-1.2117l0.3883-0.7595c0.7369 0.3625 1.4395 0.791 2.0992 1.28z" mask="url(#l)"/>
    <path transform="matrix(1.18 0 0 1.18 147.44 289.12)" d="m18.013 62.823c-1.3467-1.3376-2.9749-2.358-4.7659-2.9867l0.2646-0.8107c1.9074 0.6695 3.6418 1.7554 5.0773 3.1787z" mask="url(#k)"/>
    <path transform="matrix(1.18 0 0 1.18 147.44 289.12)" d="m21.529 67.917c-0.1579-0.4267-0.3371-0.8192-0.5334-1.216l0.7638-0.3797c0.2104 0.4169 0.3998 0.8441 0.5674 1.28z" mask="url(#j)"/>
    <path transform="matrix(1.18 0 0 1.18 147.44 289.12)" d="m19.11 69.756-0.2731-0.8064c1.0221-0.3444 1.9786-0.8594 2.8288-1.5232l0.5248 0.6742c-0.926 0.7218-1.9676 1.2816-3.0805 1.6554z" mask="url(#i)"/>
    <path transform="matrix(1.18 0 0 1.18 147.44 289.12)" d="m5.5461 59.452-0.19627-0.8277c0.94609-0.2317 1.9147-0.3591 2.8885-0.3797l0.02133 0.8533c-0.91474 0.0187-1.8247 0.1375-2.7136 0.3541z" mask="url(#h)"/>
    <path transform="matrix(1.18 0 0 1.18 147.44 289.12)" d="m12.544 56.739-0.7168-0.465c0.6263-1.0172 1.3982-1.9372 2.2912-2.7307l0.5632 0.6443c-0.8339 0.741-1.5542 1.6007-2.1376 2.5514z" mask="url(#g)"/>
    <path transform="matrix(1.18 0 0 1.18 147.44 289.12)" d="m18.888 51.678-0.2902-0.8022c0.6422-0.2407 1.3029-0.4291 1.9755-0.5632l0.1579 0.8534c-0.6276 0.119-1.2441 0.2903-1.8432 0.512z" mask="url(#f)"/>
    <path transform="matrix(1.18 0 0 1.18 147.44 289.12)" d="m10.44 68.839c-0.69735-1.6184-1.0699-3.358-1.0966-5.12 0.01413-0.679 0.10284-1.3543 0.26454-2.0139 0.02986-0.1493 0.064-0.3029 0.09386-0.4608l0.85336 0.1664c-0.0299 0.1622-0.064 0.3158-0.0939 0.4694-0.1491 0.6021-0.2321 1.2187-0.2475 1.8389 0.0194 1.6554 0.3644 3.2907 1.0155 4.8128z" mask="url(#e)"/>
    <path transform="matrix(1.18 0 0 1.18 147.44 289.12)" d="m15.667 70.332c-2.829 0-5.5421-1.1238-7.5425-3.1242-2.0004-2.0004-3.1242-4.7135-3.1242-7.5424 0-0.2176 0-0.4267 0.02133-0.6443 0.13187-2.1831 0.93159-4.2728 2.2908-5.9862 1.3592-1.7133 3.2122-2.9675 5.3081-3.5925 1.3684-0.407 2.8047-0.5351 4.2236-0.3768s2.7915 0.5998 4.0366 1.2984c1.5369 0.8617 2.8363 2.0907 3.7823 3.5772 0.9459 1.4865 1.5089 3.1842 1.6387 4.9413 0.1297 1.7572-0.1778 3.5191-0.8952 5.1284s-1.8223 3.0158-3.2159 4.0939c-1.8712 1.4383-4.1637 2.2209-6.5237 2.2272zm0-20.48c-0.9504 0.0031-1.895 0.1469-2.8032 0.4267-1.9262 0.5748-3.6294 1.7272-4.8794 3.3014-1.2499 1.5743-1.9863 3.4944-2.1095 5.5007 0 0.2006-0.02134 0.3926-0.02134 0.5846 0 2.6026 1.0339 5.0987 2.8743 6.939 1.8403 1.8404 4.3364 2.8743 6.9391 2.8743 1.0774 0.0017 2.1475-0.1772 3.1658-0.5291 1.0239-0.3434 1.9819-0.8585 2.8331-1.5232 1.6185-1.2524 2.8049-2.9794 3.3933-4.9395 0.5884-1.96 0.5494-4.0549-0.1117-5.9917-0.6611-1.9367-1.9111-3.6183-3.5752-4.8095-1.6641-1.1911-3.6589-1.8323-5.7053-1.8337z" mask="url(#d)"/>
    <path transform="matrix(1.18 0 0 1.18 147.44 289.12)" d="m16.704 54.729c-0.374 0-0.7396-0.1109-1.0506-0.3188-0.3109-0.2079-0.5531-0.5033-0.6961-0.849-0.1429-0.3456-0.1801-0.7259-0.1068-1.0926 0.0733-0.3668 0.2537-0.7036 0.5185-0.9677 0.2647-0.2642 0.6019-0.4439 0.9689-0.5163 0.3669-0.0725 0.7471-0.0344 1.0924 0.1093s0.6402 0.3866 0.8473 0.698c0.2072 0.3114 0.3174 0.6772 0.3165 1.0513 0 0.248-0.0489 0.4936-0.1439 0.7226-0.0951 0.2291-0.2344 0.4372-0.4099 0.6124-0.1756 0.1752-0.384 0.314-0.6133 0.4085s-0.475 0.1429-0.723 0.1423zm0-2.9226c-0.2051 0-0.4055 0.0608-0.576 0.1747s-0.3034 0.2758-0.3819 0.4653c-0.0785 0.1894-0.099 0.3979-0.059 0.599 0.04 0.2012 0.1388 0.3859 0.2838 0.5309s0.3297 0.2437 0.5308 0.2837 0.4096 0.0195 0.599-0.059c0.1895-0.0784 0.3514-0.2113 0.4653-0.3818 0.114-0.1705 0.1748-0.371 0.1748-0.576 0-0.275-0.1093-0.5387-0.3037-0.7332-0.1944-0.1944-0.4581-0.3036-0.7331-0.3036z" mask="url(#c)"/>
    <path transform="matrix(1.18 0 0 1.18 147.44 289.12)" d="m10.884 60.681c-0.3738 0-0.7392-0.1108-1.0501-0.3185-0.31083-0.2077-0.55309-0.5029-0.69615-0.8483s-0.18049-0.7254-0.10756-1.0921c0.07293-0.3666 0.25295-0.7034 0.51729-0.9677 0.26434-0.2644 0.6011-0.4444 0.9678-0.5173 0.3666-0.073 0.7467-0.0355 1.092 0.1075 0.3454 0.1431 0.6406 0.3854 0.8483 0.6962s0.3186 0.6763 0.3186 1.0501c-0.0012 0.5009-0.2007 0.981-0.5549 1.3353-0.3542 0.3542-0.8343 0.5537-1.3353 0.5548zm0-2.9269c-0.205 0-0.4055 0.0608-0.576 0.1747s-0.3034 0.2759-0.38185 0.4653c-0.07848 0.1895-0.09901 0.3979-0.059 0.5991 0.04 0.2011 0.13875 0.3858 0.28375 0.5308s0.3297 0.2438 0.5309 0.2838c0.2011 0.04 0.4095 0.0194 0.599-0.059 0.1894-0.0785 0.3514-0.2114 0.4653-0.3819s0.1747-0.3709 0.1747-0.576c0.0012-0.1369-0.0248-0.2726-0.0764-0.3994s-0.1278-0.2421-0.2242-0.3393c-0.0964-0.0971-0.2111-0.1743-0.3374-0.2269-0.1264-0.0526-0.2619-0.0797-0.3988-0.0797z" mask="url(#b)"/>
    <path transform="matrix(1.18 0 0 1.18 147.44 289.12)" d="m20.266 66.151c-0.3742 8e-4 -0.7402-0.1094-1.0517-0.3168-0.3115-0.2073-0.5544-0.5025-0.698-0.848-0.1436-0.3456-0.1814-0.726-0.1086-1.093 0.0728-0.3671 0.2529-0.7043 0.5175-0.9689s0.6018-0.4447 0.9688-0.5175c0.3671-0.0727 0.7475-0.035 1.093 0.1086 0.3456 0.1436 0.6407 0.3865 0.8481 0.698s0.3176 0.6775 0.3168 1.0517c0 0.5002-0.1987 0.9799-0.5524 1.3335-0.3537 0.3537-0.8333 0.5524-1.3335 0.5524zm0-2.9227c-0.2052-8e-4 -0.4061 0.0593-0.5772 0.1727-0.171 0.1134-0.3046 0.275-0.3837 0.4644s-0.1003 0.398-0.0608 0.5994c0.0396 0.2014 0.138 0.3865 0.2828 0.5319 0.1448 0.1455 0.3296 0.2446 0.5308 0.285 0.2012 0.0403 0.4099 0.0201 0.5996-0.0583 0.1897-0.0783 0.3519-0.2112 0.466-0.3818s0.175-0.3712 0.175-0.5765c0-0.2742-0.1086-0.5373-0.3021-0.7316s-0.4562-0.304-0.7304-0.3052z" mask="url(#a)"/>
   </g>
   <rect x="331.52" y="355.2" width="55.46" height="9.44" rx="2.36" stroke-width="1.18"/>
  </g>
  <rect x="262.08" y="21.197" width="330.4" height="284.38" rx="1.18" stroke="#ee847b" stroke-width="2.36"/>
  <rect x="260.9" y="20.017" width="35.974" height="37.76" rx="2.36" fill="#ee847b" stroke-width="1.18"/>
  <rect x="305.87" y="34.177" width="132.65" height="9.44" rx="2.36" fill="#ee847b" stroke-width="1.18"/>
  <rect x="17.942" y="105.6" width="224.2" height="129.8" rx="1.18" stroke="#ee847b" stroke-width="2.36"/>
  <rect x="16.762" y="104.42" width="37.76" height="37.76" rx="2.36" fill="#ee847b" stroke-width="1.18"/>
  <rect x="63.962" y="118.58" width="99.015" height="9.44" rx="2.36" fill="#ee847b" stroke-width="1.18"/>
  <g stroke="#ee847b" stroke-width="2.36">
   <path d="m211.6 183.99c46.683 0 25.381 35.443 75.262 35.443"/>
   <path d="m461.5 186.99c-32.45 0-43.66 24.78-67.26 24.78"/>
   <path d="m465.04 248.94c-42.735 0-26.79-24.78-70.8-24.78"/>
  </g>
  <g transform="matrix(1.18 0 0 1.18 4.9619 -32.463)" clip-path="url(#q)">
   <rect transform="translate(15,122)" width="22" height="21" fill="#ee847b"/>
   <path d="m25.643 122c-5.8854 0-10.643 4.793-10.643 10.722 0 4.74 3.0485 8.752 7.2775 10.172 0.5288 0.107 0.7224-0.231 0.7224-0.515 0-0.248-0.0174-1.1-0.0174-1.988-2.9607 0.639-3.5772-1.278-3.5772-1.278-0.4758-1.243-1.1808-1.562-1.1808-1.562-0.969-0.657 0.0706-0.657 0.0706-0.657 1.0749 0.071 1.6389 1.101 1.6389 1.101 0.9514 1.633 2.4845 1.171 3.1012 0.887 0.088-0.692 0.3702-1.171 0.6697-1.438-2.3613-0.248-4.8458-1.171-4.8458-5.29 0-1.172 0.4227-2.13 1.0924-2.876-0.1057-0.266-0.4758-1.367 0.1058-2.84 0 0 0.8987-0.284 2.925 1.101 0.8675-0.235 1.7622-0.355 2.6609-0.356 0.8987 0 1.8147 0.125 2.6607 0.356 2.0265-1.385 2.9251-1.101 2.9251-1.101 0.5817 1.473 0.2114 2.574 0.1057 2.84 0.6873 0.746 1.0926 1.704 1.0926 2.876 0 4.119-2.4845 5.024-4.8635 5.29 0.3878 0.338 0.7224 0.977 0.7224 1.988 0 1.438-0.0174 2.592-0.0174 2.947 0 0.284 0.1939 0.622 0.7224 0.515 4.2291-1.42 7.2775-5.432 7.2775-10.172 0.0175-5.929-4.7577-10.722-10.626-10.722z" clip-rule="evenodd" fill="#fff" fill-rule="evenodd"/>
  </g>
  <g transform="matrix(1.18 0 0 1.18 4.9619 -32.463)" clip-path="url(#p)">
   <path d="m50.771 185.31c-0.1178 0-0.2307-0.046-0.314-0.13l-0.6628-0.661c-0.0425-0.041-0.0765-0.09-0.0999-0.144-0.0233-0.054-0.0357-0.112-0.0363-0.171s0.0106-0.118 0.0329-0.173c0.0223-0.054 0.0552-0.104 0.0969-0.146s0.0913-0.075 0.146-0.097c0.0546-0.023 0.1132-0.034 0.1722-0.034 0.0591 1e-3 0.1175 0.013 0.1717 0.036 0.0543 0.023 0.1035 0.057 0.1446 0.1l0.3487 0.347 1.0506-1.049c0.0834-0.084 0.1965-0.131 0.3146-0.131 0.118 0 0.2312 0.047 0.3148 0.13 0.0835 0.084 0.1304 0.197 0.1305 0.315s-0.0467 0.231-0.1301 0.315l-1.3655 1.363c-0.0838 0.083-0.1969 0.13-0.3149 0.13zm8.3203-0.13 1.3646-1.363c0.081-0.084 0.1258-0.197 0.1248-0.313-1e-3 -0.117-0.0478-0.228-0.1302-0.311-0.0825-0.082-0.1941-0.129-0.3107-0.13s-0.229 0.044-0.3129 0.125l-1.0506 1.049-0.3487-0.347c-0.0411-0.043-0.0902-0.077-0.1445-0.1s-0.1127-0.035-0.1717-0.036c-0.0591 0-0.1176 0.011-0.1723 0.034-0.0546 0.022-0.1042 0.055-0.1459 0.097s-0.0747 0.092-0.097 0.146c-0.0222 0.055-0.0334 0.114-0.0328 0.173s0.0129 0.117 0.0363 0.171 0.0573 0.103 0.0999 0.144l0.6636 0.661c0.0412 0.042 0.0901 0.075 0.1441 0.097 0.0539 0.022 0.1117 0.034 0.1701 0.034s0.1162-0.012 0.1701-0.034c0.0538-0.023 0.1027-0.056 0.1438-0.097zm-14.064-5.549 2.2747-1.41c0.1284-0.079 0.2345-0.19 0.3083-0.322 0.0737-0.132 0.1127-0.28 0.1132-0.431s-0.0374-0.3-0.1102-0.432-0.1781-0.244-0.306-0.324l-2.2746-1.433c-0.1346-0.084-0.2894-0.132-0.4484-0.136-0.159-5e-3 -0.3163 0.033-0.4556 0.11-0.1392 0.077-0.2553 0.19-0.3362 0.327s-0.1235 0.293-0.1235 0.452v2.843c2e-4 0.158 0.0427 0.314 0.1231 0.45 0.0804 0.137 0.1958 0.25 0.3342 0.327s0.2949 0.115 0.4533 0.112c0.1584-4e-3 0.313-0.05 0.4477-0.133zm1.8059-2.167-2.2747 1.411v-2.843zm15.517 6.658c0 1.717-1.3966 3.113-3.1135 3.113-0.748-1e-3 -1.4704-0.271-2.0355-0.761s-0.9351-1.167-1.0425-1.907h-1.8503c-0.1074 0.74-0.4774 1.417-1.0425 1.907s-1.2876 0.76-2.0355 0.761c-0.748-1e-3 -1.4705-0.271-2.0356-0.761-0.5652-0.49-0.9351-1.167-1.0423-1.907h-0.4964c-0.8647 0-1.6458-0.355-2.208-0.927v4.485c0 1.471 1.1974 2.669 2.6688 2.669h0.0356c0.217-1.506 1.5122-2.669 3.0779-2.669 1.7169 0 3.1136 1.397 3.1136 3.113 0 1.717-1.3967 3.114-3.1136 3.114-0.748-1e-3 -1.4705-0.272-2.0356-0.762-0.5652-0.49-0.9351-1.167-1.0423-1.907h-0.0356c-1.9625 0-3.5584-1.596-3.5584-3.558v-6.317c-1.0039-0.206-1.9059-0.752-2.5541-1.546s-1.0029-1.787-1.0042-2.812c0-2.453 1.9953-4.448 4.4479-4.448s4.4479 1.995 4.4479 4.448c-0.0015 1.172-0.4649 2.295-1.2895 3.128-0.8246 0.832-1.9441 1.306-3.1157 1.318 0.0989 0.502 0.3688 0.953 0.7637 1.278s0.8903 0.503 1.4016 0.503h0.4964c0.217-1.506 1.5122-2.669 3.0779-2.669 0.748 1e-3 1.4705 0.272 2.0357 0.762 0.5651 0.49 0.935 1.167 1.0423 1.907h1.8503c0.1074-0.74 0.4774-1.417 1.0425-1.907s1.2875-0.76 2.0355-0.762c1.7169 0 3.1135 1.397 3.1135 3.114zm-13.344 7.116c0 1.226 0.9981 2.224 2.2239 2.224 1.2259 0 2.224-0.998 2.224-2.224 0-1.225-0.9981-2.223-2.224-2.223-1.2258 0-2.2239 0.998-2.2239 2.223zm-3.5584-10.23c1.9624 0 3.5584-1.596 3.5584-3.558 0-1.963-1.596-3.558-3.5584-3.558s-3.5583 1.595-3.5583 3.558c0 1.962 1.5959 3.558 3.5583 3.558zm8.0063 3.114c0-1.226-0.9981-2.224-2.224-2.224-1.2258 0-2.2239 0.998-2.2239 2.224s0.9981 2.224 2.2239 2.224c1.2259 0 2.224-0.998 2.224-2.224zm8.0062 0c0-1.226-0.9981-2.224-2.2239-2.224-1.2259 0-2.224 0.998-2.224 2.224s0.9981 2.224 2.224 2.224c1.2258 0 2.2239-0.998 2.2239-2.224zm-11.565 7.116c0 0.118 0.0469 0.232 0.1303 0.315s0.1966 0.13 0.3145 0.13c0.118 0 0.2311-0.047 0.3145-0.13 0.0835-0.083 0.1303-0.197 0.1303-0.315s-0.0468-0.231-0.1303-0.314c-0.0834-0.083-0.1965-0.13-0.3145-0.13-0.1179 0-0.2311 0.047-0.3145 0.13s-0.1303 0.196-0.1303 0.314zm1.7792 0c0 0.118 0.0469 0.232 0.1303 0.315s0.1965 0.13 0.3145 0.13 0.2311-0.047 0.3145-0.13 0.1303-0.197 0.1303-0.315-0.0469-0.231-0.1303-0.314-0.1965-0.13-0.3145-0.13-0.2311 0.047-0.3145 0.13-0.1303 0.196-0.1303 0.314zm10.675 0c0 1.717-1.3966 3.114-3.1135 3.114-0.7482-1e-3 -1.4709-0.272-2.036-0.762-0.5651-0.491-0.935-1.168-1.042-1.909-0.0062 1e-3 -0.0116 5e-3 -0.0187 5e-3l-0.4501 0.015h-0.0151c-0.1147-3e-3 -0.2239-0.05-0.3046-0.132-0.0808-0.081-0.1269-0.191-0.1287-0.305-0.0019-0.115 0.0407-0.226 0.1188-0.31s0.1857-0.135 0.3002-0.142l0.4502-0.015c0.016-2e-3 0.0311 6e-3 0.0462 6e-3 0.1053-0.742 0.4747-1.421 1.0403-1.913 0.5657-0.492 1.2898-0.764 2.0395-0.765 1.7169 0 3.1135 1.397 3.1135 3.113zm-0.8896 0c0-1.225-0.9981-2.223-2.2239-2.223-1.2259 0-2.224 0.998-2.224 2.223 0 1.226 0.9981 2.224 2.224 2.224 1.2258 0 2.2239-0.998 2.2239-2.224z" fill="#fff"/>
  </g>
  <g transform="matrix(1.18 0 0 1.18 1.3005 20.017)" clip-path="url(#o)">
   <path d="m235.6 5.306c-0.183 0.00952-0.363 0.05637-0.529 0.13781l-7.217 3.5509c-0.187 0.09186-0.351 0.22552-0.48 0.39105-0.129 0.16554-0.22 0.35869-0.267 0.56511l-1.78 7.9763c-0.041 0.1837-0.046 0.3741-0.014 0.5597 0.033 0.1856 0.101 0.3627 0.201 0.5209 0.025 0.0387 0.051 0.0761 0.079 0.1122l4.995 6.3956c0.129 0.1655 0.294 0.2991 0.48 0.3909 0.187 0.0918 0.392 0.1395 0.599 0.1394l8.011-0.0019c0.207 2e-4 0.412-0.0473 0.598-0.139 0.187-0.0916 0.351-0.225 0.481-0.3904l4.993-6.3965c0.13-0.1656 0.221-0.3588 0.267-0.5653s0.046-0.421 0-0.6275l-1.783-7.9763c-0.046-0.20642-0.137-0.39957-0.267-0.56511-0.129-0.16553-0.293-0.29919-0.48-0.39105l-7.218-3.549c-0.208-0.10244-0.438-0.14983-0.669-0.13781z" fill="#fff"/>
   <path d="m235.68 8.0204c-0.239 2e-5 -0.432 0.22129-0.432 0.49423v0.01236c0 0.03708-2e-3 0.08176 0 0.11405 5e-3 0.15743 0.039 0.27792 0.059 0.42296 0.036 0.31043 0.066 0.56775 0.048 0.80693-0.019 0.09019-0.083 0.17268-0.141 0.22998l-0.01 0.1882c-0.259 0.0221-0.52 0.0626-0.781 0.1236-1.121 0.2622-2.087 0.8572-2.822 1.6604-0.048-0.0335-0.131-0.0951-0.156-0.114-0.077 0.0107-0.155 0.0352-0.257-0.0257-0.193-0.134-0.369-0.3189-0.582-0.5418-0.098-0.1065-0.169-0.208-0.284-0.3107-0.027-0.0234-0.067-0.0549-0.096-0.0789-0.091-0.0745-0.198-0.1133-0.301-0.1169-0.133-0.0047-0.261 0.0487-0.345 0.1568-0.148 0.1921-0.101 0.4856 0.106 0.6558 3e-3 0.0017 5e-3 0.0031 7e-3 0.0047 0.028 0.0238 0.063 0.0543 0.089 0.0742 0.124 0.0936 0.236 0.1415 0.359 0.2157 0.258 0.1643 0.472 0.3006 0.642 0.4648 0.066 0.0728 0.078 0.2011 0.087 0.2566l0.138 0.1274c-0.741 1.1486-1.084 2.5673-0.881 4.0128l-0.181 0.0542c-0.048 0.0634-0.115 0.1632-0.186 0.1929-0.222 0.0721-0.472 0.0986-0.774 0.1312-0.142 0.0121-0.264 0.0049-0.414 0.0342-0.034 0.0065-0.08 0.0188-0.116 0.0276-1e-3 2e-4 -2e-3 6e-4 -4e-3 9e-4 -2e-3 5e-4 -4e-3 0.0015-6e-3 0.0019-0.255 0.0634-0.418 0.3044-0.366 0.5418 0.053 0.2375 0.302 0.3819 0.558 0.325 2e-3 -4e-4 4e-3 -5e-4 6e-3 -9e-4 3e-3 -7e-4 6e-3 -0.0021 9e-3 -0.0029 0.035-8e-3 0.08-0.017 0.111-0.0256 0.148-0.0408 0.255-0.1006 0.388-0.153 0.286-0.1056 0.523-0.1938 0.753-0.2282 0.097-0.0077 0.198 0.0612 0.249 0.0903l0.188-0.0332c0.433 1.3833 1.341 2.5014 2.491 3.203l-0.078 0.1939c0.028 0.0753 0.059 0.1772 0.038 0.2515-0.084 0.2239-0.228 0.4602-0.391 0.7237-0.079 0.1217-0.16 0.2161-0.232 0.3554-0.017 0.0334-0.039 0.0846-0.055 0.1198-0.111 0.2446-0.03 0.5263 0.184 0.632 0.214 0.1064 0.481-0.0058 0.596-0.2509 0-3e-4 1e-3 -6e-4 1e-3 -9e-4v-1e-3c0.016-0.0347 0.039-0.0804 0.053-0.1131 0.062-0.1444 0.082-0.2681 0.125-0.4077 0.114-0.2957 0.177-0.6058 0.334-0.7991 0.043-0.053 0.114-0.0733 0.186-0.0934l0.098-0.1825c1.003 0.3962 2.125 0.5025 3.246 0.2405 0.255-0.0598 0.502-0.1372 0.741-0.23 0.027 0.0502 0.078 0.1467 0.092 0.1711 0.074 0.0247 0.155 0.0375 0.221 0.1378 0.117 0.2071 0.198 0.4521 0.296 0.748 0.043 0.1396 0.064 0.2633 0.125 0.4077 0.014 0.0329 0.038 0.0792 0.054 0.1141 0.115 0.2459 0.382 0.3585 0.597 0.2518 0.213-0.1057 0.295-0.3874 0.184-0.632-0.017-0.0352-0.039-0.0864-0.056-0.1198-0.072-0.1393-0.153-0.2328-0.232-0.3545-0.164-0.2634-0.299-0.4823-0.383-0.7062-0.035-0.1154 6e-3 -0.1873 0.033-0.2623-0.016-0.0193-0.051-0.1283-0.072-0.1796 1.195-0.7266 2.076-1.8864 2.49-3.2259 0.056 0.0091 0.153 0.0268 0.185 0.0333 0.065-0.0441 0.125-0.1017 0.242-0.0922 0.23 0.0343 0.467 0.1226 0.753 0.2281 0.133 0.0524 0.24 0.1132 0.388 0.154 0.031 0.0086 0.076 0.0166 0.111 0.0247 3e-3 7e-4 6e-3 0.0022 9e-3 0.0028 2e-3 5e-4 4e-3 6e-4 6e-3 1e-3 0.256 0.0568 0.505-0.0876 0.558-0.3251 0.052-0.2374-0.111-0.4784-0.366-0.5417-0.037-0.0087-0.09-0.0234-0.126-0.0304-0.15-0.0294-0.272-0.0221-0.414-0.0343-0.302-0.0325-0.552-0.059-0.774-0.1311-0.091-0.0362-0.155-0.1473-0.187-0.193l-0.174-0.0522c0.09-0.6739 0.066-1.3751-0.091-2.0768-0.158-0.7082-0.437-1.3559-0.809-1.9266 0.045-0.0418 0.129-0.1189 0.153-0.1416 7e-3 -0.0798 1e-3 -0.1635 0.081-0.2518 0.17-0.1643 0.384-0.3005 0.643-0.4648 0.122-0.0743 0.236-0.1222 0.359-0.2158 0.028-0.0211 0.066-0.0546 0.095-0.0789 0.207-0.1702 0.255-0.4637 0.106-0.6558-0.149-0.192-0.437-0.2101-0.644-0.0399-0.03 0.0241-0.07 0.0554-0.096 0.0789-0.116 0.1027-0.188 0.2042-0.285 0.3108-0.214 0.2228-0.39 0.4087-0.583 0.5427-0.084 0.0502-0.206 0.0328-0.262 0.0295l-0.164 0.1207c-0.937-1.0116-2.213-1.6584-3.586-1.784-4e-3 -0.0593-9e-3 -0.1664-0.01-0.1987-0.057-0.0554-0.124-0.10268-0.142-0.22238-0.018-0.23918 0.013-0.4965 0.049-0.80693 0.02-0.14504 0.054-0.26553 0.059-0.42296 2e-3 -0.03578 0-0.08771 0-0.12641-1e-3 -0.27294-0.194-0.49426-0.432-0.49423zm-0.541 3.4501-0.129 2.3334-9e-3 0.0048c-8e-3 0.2087-0.175 0.3754-0.38 0.3754-0.084 0-0.161-0.0278-0.224-0.0751l-4e-3 0.0019-1.858-1.3563c0.571-0.5782 1.301-1.0055 2.143-1.2023 0.154-0.036 0.308-0.0626 0.461-0.0818zm1.082 0c0.983 0.1245 1.892 0.5827 2.588 1.2851l-1.846 1.3477-6e-3 -0.0029c-0.164 0.1233-0.395 0.0927-0.522-0.0722-0.053-0.0675-0.08-0.147-0.084-0.2271l-1e-3 -1e-3zm-4.36 2.1557 1.697 1.5625-2e-3 0.0095c0.153 0.1371 0.175 0.375 0.048 0.5399-0.053 0.0675-0.123 0.1128-0.198 0.134l-2e-3 0.0076-2.174 0.6463c-0.111-1.0422 0.128-2.0552 0.631-2.8998zm7.625 9e-4c0.252 0.4207 0.443 0.8906 0.557 1.4 0.112 0.5033 0.14 1.0058 0.094 1.4913l-2.186-0.6482-2e-3 -0.0095c-0.196-0.0551-0.316-0.2601-0.27-0.4657 0.018-0.0843 0.062-0.1555 0.121-0.2082l-1e-3 -0.0047zm-4.154 1.6823h0.695l0.432 0.556-0.156 0.6939-0.623 0.3089-0.626-0.3099-0.155-0.6938zm2.228 1.9028c0.029-0.0015 0.059 0.0012 0.087 0.0067l4e-3 -0.0048 2.249 0.3916c-0.329 0.9524-0.959 1.7775-1.8 2.3296l-0.874-2.1718 3e-3 -0.0038c-0.08-0.1919 0-0.417 0.185-0.5085 0.047-0.0234 0.096-0.0364 0.146-0.039zm-3.778 0.0095c0.172 0.0025 0.325 0.1252 0.365 0.3051 0.019 0.0843 0.01 0.1677-0.021 0.2415l7e-3 0.0085-0.864 2.1499c-0.808-0.5337-1.451-1.3329-1.796-2.3134l2.23-0.3897 4e-3 0.0048c0.025-0.0047 0.05-7e-3 0.075-0.0067zm1.884 0.9419c0.059-0.0022 0.12 0.0104 0.178 0.039 0.075 0.0375 0.134 0.0965 0.171 0.1673h8e-3l1.099 2.0454c-0.142 0.0492-0.289 0.0913-0.439 0.1264-0.841 0.1965-1.679 0.137-2.438-0.1293l1.097-2.0416h2e-3c0.065-0.1266 0.19-0.2022 0.322-0.2072z" fill="#ee847b" stroke="#ee847b" stroke-width=".25"/>
  </g>
  <g transform="matrix(1.18 0 0 1.18 1.3005 20.017)" clip-path="url(#n)">
   <path d="m256.6 157.56c-0.179 9e-3 -0.354 0.055-0.516 0.134l-7.031 3.463c-0.182 0.089-0.342 0.22-0.467 0.381-0.126 0.161-0.215 0.35-0.26 0.551l-1.735 7.777c-0.04 0.179-0.044 0.365-0.013 0.546s0.098 0.354 0.196 0.508c0.023 0.037 0.049 0.074 0.076 0.109l4.867 6.236c0.126 0.161 0.286 0.292 0.468 0.381 0.182 0.09 0.381 0.136 0.583 0.136l7.805-2e-3c0.201 0 0.401-0.046 0.583-0.135 0.182-0.09 0.342-0.22 0.468-0.381l4.865-6.237c0.126-0.161 0.215-0.35 0.26-0.551s0.045-0.41 0-0.612l-1.738-7.777c-0.045-0.201-0.133-0.389-0.259-0.551-0.126-0.161-0.286-0.292-0.468-0.381l-7.032-3.461c-0.203-0.099-0.427-0.146-0.652-0.134z" fill="#fff"/>
   <path d="m256.6 157c-0.189 0.01-0.373 0.059-0.543 0.143l-7.423 3.654c-0.192 0.094-0.361 0.232-0.494 0.402-0.133 0.171-0.227 0.369-0.274 0.582l-1.831 8.21c-0.043 0.189-0.047 0.385-0.014 0.576s0.103 0.374 0.206 0.537c0.025 0.039 0.052 0.078 0.081 0.115l5.138 6.583c0.133 0.17 0.301 0.308 0.493 0.402 0.193 0.095 0.403 0.144 0.616 0.144l8.239-2e-3c0.213 0 0.424-0.049 0.616-0.143s0.361-0.232 0.494-0.402l5.135-6.584c0.133-0.171 0.227-0.369 0.274-0.582 0.048-0.212 0.048-0.433 1e-3 -0.645l-1.834-8.211c-0.048-0.212-0.141-0.411-0.274-0.581s-0.302-0.308-0.494-0.402l-7.423-3.654c-0.215-0.106-0.451-0.155-0.689-0.142zm4e-3 0.563c0.224-0.011 0.449 0.035 0.652 0.135l7.032 3.46c0.182 0.09 0.341 0.22 0.467 0.381 0.126 0.162 0.215 0.35 0.26 0.551l1.737 7.778c0.045 0.201 0.045 0.41 0 0.611-0.045 0.202-0.133 0.39-0.259 0.552l-4.865 6.236c-0.126 0.162-0.286 0.292-0.468 0.381s-0.382 0.136-0.584 0.136l-7.804 1e-3c-0.202 1e-3 -0.401-0.046-0.583-0.135-0.182-0.09-0.342-0.22-0.468-0.382l-4.867-6.236c-0.027-0.035-0.053-0.071-0.076-0.109-0.098-0.154-0.165-0.327-0.196-0.508s-0.027-0.366 0.013-0.546l1.735-7.777c0.045-0.201 0.133-0.389 0.259-0.551 0.126-0.161 0.286-0.291 0.468-0.381l7.031-3.462c0.162-0.08 0.337-0.125 0.516-0.135z" fill="#ee847b"/>
   <g clip-rule="evenodd" fill="#ee847b" fill-rule="evenodd">
    <path d="m252.39 164.58 4.286-1.281 4.286 1.281-4.286 1.281z"/>
    <path d="m252.39 165.07v4.7l3.993 2.28 0.02-5.75z"/>
    <path d="m260.96 165.07v4.7l-3.993 2.28-0.02-5.75z"/>
   </g>
  </g>
  <g transform="matrix(1.18 0 0 1.18 1.3005 20.017)" clip-path="url(#m)">
   <path d="m266.6 72.548c-0.179 9e-3 -0.354 0.0533-0.516 0.1304l-7.031 3.3595c-0.182 0.087-0.342 0.2134-0.467 0.37-0.126 0.1566-0.215 0.3394-0.26 0.5347l-1.735 7.5464c-0.04 0.1739-0.044 0.3539-0.013 0.5296 0.031 0.1756 0.098 0.3432 0.196 0.4928 0.023 0.0366 0.049 0.072 0.076 0.1061l4.867 6.051c0.126 0.1566 0.286 0.283 0.468 0.3699 0.182 0.0868 0.381 0.1319 0.583 0.1319l7.805-0.0018c0.201 1e-4 0.401-0.0448 0.583-0.1315s0.342-0.213 0.468-0.3694l4.865-6.0519c0.126-0.1566 0.215-0.3394 0.26-0.5348s0.045-0.3983 0-0.5937l-1.738-7.5464c-0.045-0.1953-0.133-0.3781-0.259-0.5347s-0.286-0.283-0.468-0.37l-7.032-3.3577c-0.203-0.0969-0.427-0.1418-0.652-0.1304z" fill="#fff"/>
   <g fill="#ee847b">
    <path d="m266.6 72.002c-0.189 0.0098-0.373 0.0569-0.543 0.1384l-7.423 3.5457c-0.192 0.0918-0.361 0.2253-0.494 0.3906-0.133 0.1654-0.227 0.3583-0.274 0.5644l-1.831 7.9664c-0.043 0.1836-0.047 0.3738-0.014 0.5593s0.103 0.3626 0.206 0.5207c0.025 0.0384 0.052 0.0756 0.081 0.1115l5.138 6.3882c0.133 0.1652 0.301 0.2987 0.493 0.3904 0.193 0.0917 0.403 0.1393 0.616 0.1392l8.239-0.0018c0.213 2e-4 0.424-0.0473 0.616-0.1388 0.192-0.0916 0.361-0.2248 0.494-0.3899l5.135-6.3891c0.133-0.1653 0.227-0.3582 0.274-0.5643 0.048-0.2061 0.048-0.4202 1e-3 -0.6263l-1.834-7.9673c-0.048-0.206-0.141-0.3987-0.274-0.5639-0.133-0.1651-0.302-0.2985-0.494-0.3902l-7.423-3.5457c-0.215-0.1024-0.451-0.1497-0.689-0.1375zm4e-3 0.5467c0.224-0.0114 0.449 0.0335 0.652 0.1304l7.032 3.3577c0.182 0.087 0.341 0.2134 0.467 0.37s0.215 0.3394 0.26 0.5347l1.737 7.5464c0.045 0.1954 0.045 0.3983 0 0.5937s-0.133 0.3782-0.259 0.5348l-4.865 6.0519c-0.126 0.1564-0.286 0.2827-0.468 0.3694s-0.382 0.1316-0.584 0.1315l-7.804 0.0018c-0.202 0-0.401-0.0451-0.583-0.1319-0.182-0.0869-0.342-0.2133-0.468-0.3699l-4.867-6.051c-0.027-0.0341-0.053-0.0695-0.076-0.1061-0.098-0.1496-0.165-0.3172-0.196-0.4928-0.031-0.1757-0.027-0.3557 0.013-0.5296l1.735-7.5464c0.045-0.1953 0.133-0.3781 0.259-0.5347s0.286-0.283 0.468-0.3699l7.031-3.3596c0.162-0.0771 0.337-0.1214 0.516-0.1304z"/>
    <path d="m267.96 76.215v2.5362h2.607v-2.5362zm0 3.6508v0.6466c0.306-0.0724 0.623-0.115 0.951-0.115 0.588 0 1.148 0.1259 1.656 0.3487v-0.8803zm-7.439 0.0392v2.5362h2.608v-2.5362zm3.719 0v2.5362h1.099c0.367-0.6159 0.887-1.13 1.509-1.4883v-1.0479zm-3.743 3.69v2.5362h2.608v-2.5362zm3.731 0v2.5362h0.836c-0.2-0.4862-0.313-1.0176-0.313-1.574 0-0.3315 0.044-0.6526 0.118-0.9622z"/>
    <path d="m269.07 80.926c-2.083 0-3.788 1.7045-3.788 3.7879 0 2.0833 1.705 3.7879 3.788 3.7879s3.788-1.7046 3.788-3.7879c0-2.0834-1.705-3.7879-3.788-3.7879zm1.591 5.3788-1.97-1.2121v-2.2728h0.568v1.9697l1.705 1.0228z"/>
   </g>
  </g>
 </g>
</svg>
